<svg id="svg" version="1.1" xmlns="http://www.w3.org/2000/svg" xmlns:xlink="http://www.w3.org/1999/xlink" width="400" height="400" viewBox="0, 0, 400,400"><g id="svgg"><path id="path0" d="M139.170 106.554 C 139.043 106.685,137.153 106.975,134.970 107.197 C 129.554 107.747,125.215 108.513,121.400 109.592 C 120.520 109.841,119.260 110.193,118.600 110.374 C 109.613 112.840,91.173 122.124,88.400 125.580 C 88.290 125.717,86.850 126.927,85.200 128.270 C 82.026 130.853,74.538 138.400,72.703 140.865 C 72.103 141.671,71.352 142.590,71.035 142.908 C 68.376 145.567,60.934 158.736,58.437 165.200 C 57.715 167.070,56.981 168.960,56.805 169.400 C 55.610 172.404,54.056 178.492,53.180 183.600 C 51.098 195.750,51.363 207.961,53.978 220.400 C 54.187 221.390,54.470 222.740,54.609 223.400 C 54.747 224.060,55.006 224.960,55.185 225.400 C 55.363 225.840,55.730 227.010,56.000 228.000 C 56.270 228.990,56.634 230.160,56.807 230.600 C 56.981 231.040,57.717 232.930,58.443 234.800 C 68.412 260.491,92.533 282.473,118.600 289.626 C 119.260 289.807,120.520 290.159,121.400 290.408 C 132.189 293.460,148.999 294.323,159.600 292.367 C 173.741 289.759,176.075 288.554,177.584 283.083 C 177.989 281.616,178.006 280.932,177.657 280.165 C 177.405 279.613,177.200 278.852,177.200 278.472 C 177.200 275.336,171.190 272.407,166.940 273.473 C 156.170 276.174,148.341 277.014,140.000 276.366 C 136.810 276.117,133.678 275.754,133.040 275.557 C 132.402 275.361,131.425 275.200,130.869 275.200 C 130.312 275.200,129.304 275.032,128.628 274.827 C 127.953 274.622,126.590 274.238,125.600 273.974 C 122.814 273.230,119.074 272.003,118.305 271.581 C 117.923 271.371,117.403 271.200,117.150 271.200 C 116.133 271.200,106.468 266.106,102.793 263.634 C 89.821 254.906,81.054 244.191,74.248 228.747 C 67.641 213.757,66.987 189.439,72.803 175.000 C 72.981 174.560,73.427 173.390,73.796 172.400 C 78.627 159.421,88.170 146.958,100.005 138.171 C 104.933 134.512,112.381 130.480,118.000 128.430 C 118.770 128.149,119.760 127.772,120.200 127.593 C 120.640 127.414,121.450 127.150,122.000 127.006 C 122.550 126.863,123.630 126.566,124.400 126.346 C 139.807 121.949,159.124 122.807,172.400 128.480 C 172.950 128.715,173.760 129.037,174.200 129.196 C 178.209 130.644,189.334 137.043,191.843 139.345 C 192.116 139.595,193.239 140.520,194.339 141.400 C 198.995 145.124,252.243 198.979,253.070 200.800 C 258.526 212.812,248.169 225.143,235.966 221.163 C 232.267 219.957,232.877 220.517,205.809 193.476 C 177.370 165.067,176.524 164.359,168.400 162.219 C 140.944 154.984,118.726 185.910,134.196 209.828 C 135.995 212.610,191.518 268.420,196.246 272.200 C 197.898 273.520,199.463 274.791,199.724 275.025 C 200.410 275.638,207.532 280.400,207.763 280.400 C 207.870 280.400,209.091 281.064,210.476 281.876 C 214.934 284.489,223.805 288.200,229.000 289.626 C 229.660 289.807,230.920 290.159,231.800 290.408 C 245.672 294.333,265.528 294.333,279.400 290.408 C 280.280 290.159,281.540 289.807,282.200 289.626 C 298.324 285.202,319.009 271.499,327.829 259.400 C 328.471 258.520,329.087 257.710,329.199 257.600 C 332.519 254.334,342.800 236.105,342.800 233.484 C 342.800 233.196,342.948 232.789,343.128 232.580 C 343.411 232.253,343.841 230.968,345.602 225.200 C 350.643 208.687,350.200 188.912,344.383 170.800 C 343.923 169.370,343.355 167.750,343.120 167.200 C 342.885 166.650,342.555 165.840,342.387 165.400 C 339.772 158.557,332.110 145.196,329.197 142.400 C 329.083 142.290,328.181 141.212,327.195 140.003 C 324.231 136.376,320.400 132.491,316.800 129.462 C 314.930 127.889,313.310 126.503,313.200 126.382 C 313.090 126.261,312.370 125.729,311.600 125.200 C 310.830 124.671,310.110 124.126,310.000 123.989 C 309.737 123.661,304.895 120.400,304.670 120.400 C 304.575 120.400,303.440 119.761,302.148 118.979 C 299.600 117.438,293.401 114.396,290.200 113.117 C 286.193 111.515,281.243 109.998,276.000 108.765 C 262.731 105.644,244.406 105.989,231.800 109.598 C 230.920 109.850,229.750 110.161,229.200 110.290 C 225.670 111.119,222.800 114.831,222.800 118.570 C 222.800 124.163,228.099 128.102,233.628 126.618 C 240.017 124.904,241.719 124.600,249.400 123.793 C 259.847 122.695,272.923 124.499,282.600 128.373 C 283.040 128.549,283.850 128.872,284.400 129.091 C 289.885 131.275,299.336 136.893,304.048 140.772 C 309.284 145.082,319.298 156.423,320.321 159.200 C 320.442 159.530,320.645 159.890,320.771 160.000 C 321.313 160.473,325.397 168.465,326.443 171.100 C 326.639 171.595,326.968 172.405,327.174 172.900 C 333.386 187.858,333.393 215.769,327.187 226.895 C 326.974 227.277,326.797 227.817,326.793 228.095 C 326.783 228.809,321.501 239.301,320.799 240.000 C 320.689 240.110,320.352 240.680,320.050 241.266 C 318.097 245.059,309.442 254.785,304.061 259.232 C 299.115 263.320,285.676 271.200,283.650 271.200 C 283.397 271.200,282.877 271.371,282.495 271.581 C 280.552 272.647,273.205 274.634,267.800 275.556 C 258.708 277.106,247.249 276.793,239.100 274.772 C 234.989 273.752,230.444 272.381,228.500 271.574 C 228.005 271.368,227.195 271.046,226.700 270.858 C 222.260 269.168,211.480 262.970,208.957 260.655 C 208.684 260.405,207.561 259.480,206.461 258.600 C 201.896 254.948,148.558 201.024,147.708 199.200 C 141.700 186.326,153.998 173.772,166.800 179.711 C 168.149 180.336,174.919 186.845,193.800 205.666 C 224.303 236.073,224.432 236.177,234.103 238.195 C 262.220 244.061,282.743 210.857,265.062 188.104 C 261.648 183.710,206.110 128.784,202.000 125.737 C 197.956 122.739,193.375 119.600,193.043 119.600 C 192.933 119.600,191.709 118.936,190.324 118.124 C 185.866 115.511,176.995 111.800,171.800 110.374 C 171.140 110.193,169.880 109.841,169.000 109.592 C 165.626 108.638,161.190 107.808,156.200 107.198 C 152.215 106.711,139.482 106.229,139.170 106.554 " stroke="none" fill="#fafafb" fill-rule="evenodd"></path><path id="path1" d="M27.900 0.290 C 27.075 0.377,26.400 0.617,26.400 0.824 C 26.400 1.031,25.961 1.200,25.424 1.200 C 24.887 1.200,24.336 1.380,24.200 1.600 C 24.064 1.820,23.524 2.000,23.000 2.000 C 22.476 2.000,21.936 2.180,21.800 2.400 C 21.664 2.620,21.286 2.800,20.960 2.800 C 20.633 2.800,19.980 3.160,19.508 3.600 C 19.036 4.040,18.413 4.400,18.125 4.400 C 17.836 4.400,17.600 4.580,17.600 4.800 C 17.600 5.020,17.280 5.200,16.888 5.200 C 16.497 5.200,15.917 5.560,15.600 6.000 C 15.283 6.440,14.787 6.800,14.497 6.800 C 13.859 6.800,7.051 13.565,6.875 14.375 C 6.806 14.691,6.401 15.252,5.975 15.622 C 5.549 15.991,5.200 16.588,5.200 16.947 C 5.200 17.306,5.020 17.600,4.800 17.600 C 4.580 17.600,4.400 17.836,4.400 18.125 C 4.400 18.413,4.040 19.036,3.600 19.508 C 3.160 19.980,2.800 20.633,2.800 20.960 C 2.800 21.286,2.620 21.664,2.400 21.800 C 2.180 21.936,2.000 22.476,2.000 23.000 C 2.000 23.524,1.820 24.064,1.600 24.200 C 1.380 24.336,1.200 24.872,1.200 25.390 C 1.200 25.909,0.975 26.408,0.700 26.500 C 0.301 26.633,0.200 61.689,0.200 200.000 C 0.200 338.311,0.301 373.367,0.700 373.500 C 0.975 373.592,1.200 374.091,1.200 374.610 C 1.200 375.128,1.380 375.664,1.600 375.800 C 1.820 375.936,2.000 376.476,2.000 377.000 C 2.000 377.524,2.180 378.064,2.400 378.200 C 2.620 378.336,2.800 378.714,2.800 379.040 C 2.800 379.367,3.160 380.020,3.600 380.492 C 4.040 380.964,4.400 381.587,4.400 381.875 C 4.400 382.164,4.580 382.400,4.800 382.400 C 5.020 382.400,5.200 382.694,5.200 383.053 C 5.200 383.412,5.549 384.009,5.975 384.378 C 6.401 384.748,6.806 385.308,6.875 385.623 C 7.053 386.441,12.896 392.392,13.524 392.397 C 13.812 392.398,13.936 392.580,13.800 392.800 C 13.664 393.020,13.884 393.200,14.288 393.200 C 14.693 393.200,15.283 393.560,15.600 394.000 C 15.917 394.440,16.497 394.800,16.888 394.800 C 17.280 394.800,17.600 394.980,17.600 395.200 C 17.600 395.420,17.836 395.600,18.125 395.600 C 18.413 395.600,19.036 395.960,19.508 396.400 C 19.980 396.840,20.633 397.200,20.960 397.200 C 21.286 397.200,21.664 397.380,21.800 397.600 C 21.936 397.820,22.476 398.000,23.000 398.000 C 23.524 398.000,24.064 398.180,24.200 398.400 C 24.336 398.620,24.872 398.800,25.390 398.800 C 25.909 398.800,26.408 399.025,26.500 399.300 C 26.745 400.036,373.255 400.036,373.500 399.300 C 373.592 399.025,374.091 398.800,374.610 398.800 C 375.128 398.800,375.664 398.620,375.800 398.400 C 375.936 398.180,376.476 398.000,377.000 398.000 C 377.524 398.000,378.064 397.820,378.200 397.600 C 378.336 397.380,378.714 397.200,379.040 397.200 C 379.367 397.200,380.020 396.840,380.492 396.400 C 380.964 395.960,381.587 395.600,381.875 395.600 C 382.164 395.600,382.400 395.420,382.400 395.200 C 382.400 394.980,382.720 394.800,383.112 394.800 C 383.503 394.800,384.083 394.440,384.400 394.000 C 384.717 393.560,385.307 393.200,385.712 393.200 C 386.116 393.200,386.336 393.020,386.200 392.800 C 386.064 392.580,386.188 392.398,386.476 392.397 C 387.104 392.392,392.947 386.441,393.125 385.623 C 393.194 385.308,393.599 384.748,394.025 384.378 C 394.451 384.009,394.800 383.412,394.800 383.053 C 394.800 382.694,394.946 382.400,395.125 382.400 C 395.304 382.400,395.695 381.778,395.993 381.018 C 396.291 380.258,396.713 379.746,396.929 379.880 C 397.146 380.014,397.212 379.942,397.075 379.721 C 396.938 379.499,397.084 378.976,397.400 378.559 C 397.716 378.142,397.980 377.406,397.987 376.924 C 397.994 376.442,398.180 375.936,398.400 375.800 C 398.620 375.664,398.800 375.128,398.800 374.610 C 398.800 374.091,399.025 373.592,399.300 373.500 C 399.699 373.367,399.800 338.311,399.800 200.000 C 399.800 61.689,399.699 26.633,399.300 26.500 C 399.025 26.408,398.800 25.909,398.800 25.390 C 398.800 24.872,398.620 24.336,398.400 24.200 C 398.180 24.064,398.000 23.524,398.000 23.000 C 398.000 22.476,397.820 21.936,397.600 21.800 C 397.380 21.664,397.200 21.286,397.200 20.960 C 397.200 20.633,396.840 19.980,396.400 19.508 C 395.960 19.036,395.600 18.413,395.600 18.125 C 395.600 17.836,395.420 17.600,395.200 17.600 C 394.980 17.600,394.800 17.306,394.800 16.947 C 394.800 16.588,394.451 15.991,394.025 15.622 C 393.599 15.252,393.194 14.691,393.125 14.375 C 392.949 13.565,386.141 6.800,385.503 6.800 C 385.213 6.800,384.717 6.440,384.400 6.000 C 384.083 5.560,383.503 5.200,383.112 5.200 C 382.720 5.200,382.400 5.020,382.400 4.800 C 382.400 4.580,382.164 4.400,381.875 4.400 C 381.587 4.400,380.964 4.040,380.492 3.600 C 380.020 3.160,379.367 2.800,379.040 2.800 C 378.714 2.800,378.336 2.620,378.200 2.400 C 378.064 2.180,377.524 2.000,377.000 2.000 C 376.476 2.000,375.936 1.820,375.800 1.600 C 375.664 1.380,375.128 1.200,374.610 1.200 C 374.091 1.200,373.592 0.975,373.500 0.700 C 373.342 0.227,32.326 -0.178,27.900 0.290 M158.200 106.760 C 159.740 106.997,161.990 107.382,163.200 107.616 C 164.410 107.849,166.076 108.141,166.903 108.263 C 167.729 108.385,168.505 108.645,168.626 108.842 C 168.748 109.039,169.289 109.200,169.829 109.200 C 170.369 109.200,171.123 109.359,171.505 109.554 C 171.887 109.749,173.460 110.298,175.000 110.774 C 176.540 111.251,178.205 111.812,178.700 112.021 C 179.195 112.229,180.005 112.553,180.500 112.740 C 186.776 115.114,197.937 121.658,204.000 126.522 C 208.204 129.894,264.085 185.674,266.191 188.600 C 267.885 190.955,270.005 194.958,270.557 196.845 C 271.906 201.456,272.062 202.547,272.062 207.400 C 272.062 212.253,271.906 213.344,270.557 217.955 C 268.216 225.960,256.481 237.600,250.753 237.600 C 250.365 237.600,249.948 237.760,249.827 237.956 C 248.995 239.302,231.405 239.302,230.573 237.956 C 230.452 237.760,230.048 237.598,229.676 237.595 C 228.737 237.588,222.990 234.608,221.024 233.108 C 220.131 232.427,207.880 220.414,193.800 206.414 C 179.720 192.413,167.705 180.742,167.100 180.479 C 166.495 180.216,165.535 179.781,164.966 179.514 C 161.375 177.827,154.268 179.481,150.849 182.798 C 146.801 186.727,145.602 193.878,148.165 198.800 C 149.321 201.020,202.424 254.780,206.516 257.873 C 207.442 258.574,208.560 259.483,209.000 259.894 C 210.673 261.459,221.799 268.400,222.633 268.400 C 222.714 268.400,223.909 268.917,225.290 269.549 C 228.514 271.024,234.851 273.200,235.924 273.200 C 236.380 273.200,236.852 273.361,236.974 273.558 C 237.095 273.755,237.871 274.018,238.697 274.143 C 239.524 274.268,241.460 274.589,243.000 274.857 C 246.723 275.506,264.477 275.506,268.200 274.857 C 269.740 274.589,271.676 274.268,272.503 274.143 C 273.329 274.018,274.105 273.755,274.226 273.558 C 274.348 273.361,274.820 273.200,275.276 273.200 C 282.291 273.200,300.412 262.550,309.954 252.820 C 315.466 247.198,320.463 240.159,323.737 233.400 C 325.364 230.043,326.400 227.630,326.400 227.199 C 326.400 226.974,326.559 226.477,326.753 226.095 C 327.351 224.921,327.921 223.448,328.185 222.400 C 328.323 221.850,328.672 220.500,328.959 219.400 C 329.547 217.148,330.155 214.211,330.813 210.450 C 331.386 207.182,331.386 192.835,330.814 189.529 C 330.230 186.152,329.656 183.344,329.152 181.400 C 328.297 178.105,327.045 174.187,326.728 173.820 C 326.548 173.611,326.400 173.204,326.400 172.916 C 326.400 172.089,323.619 166.048,321.743 162.800 C 315.430 151.870,306.562 142.545,296.073 135.806 C 292.907 133.773,283.661 129.200,282.714 129.200 C 282.395 129.200,282.011 129.078,281.862 128.929 C 281.422 128.489,276.276 126.822,275.324 126.810 C 274.842 126.805,274.348 126.639,274.226 126.442 C 274.105 126.245,273.329 125.982,272.503 125.857 C 271.676 125.732,269.740 125.411,268.200 125.143 C 264.649 124.524,246.744 124.494,243.200 125.100 C 240.738 125.521,239.476 125.807,235.500 126.843 C 224.813 129.630,217.790 119.815,224.951 112.100 C 225.614 111.385,226.392 110.800,226.678 110.800 C 226.965 110.800,227.200 110.620,227.200 110.400 C 227.200 110.180,227.639 110.000,228.176 110.000 C 228.713 110.000,229.264 109.820,229.400 109.600 C 229.536 109.380,230.166 109.200,230.800 109.200 C 231.434 109.200,232.052 109.039,232.174 108.842 C 232.295 108.645,233.071 108.385,233.897 108.263 C 234.724 108.141,236.390 107.851,237.600 107.619 C 243.489 106.492,246.862 106.232,255.600 106.232 C 264.338 106.232,267.711 106.492,273.600 107.619 C 274.810 107.851,276.476 108.141,277.303 108.263 C 278.129 108.385,278.905 108.645,279.026 108.842 C 279.148 109.039,279.689 109.200,280.229 109.200 C 280.769 109.200,281.523 109.359,281.905 109.554 C 282.287 109.749,283.860 110.298,285.400 110.774 C 289.378 112.006,290.082 112.300,297.200 115.717 C 302.147 118.091,310.218 123.099,313.564 125.870 C 319.678 130.933,325.651 136.802,328.350 140.400 C 328.927 141.169,329.733 142.159,330.139 142.600 C 332.799 145.480,340.599 159.044,342.906 164.800 C 343.127 165.350,343.451 166.160,343.627 166.600 C 344.641 169.133,346.878 176.569,347.357 179.000 C 347.487 179.660,347.784 181.100,348.017 182.200 C 351.103 196.775,349.487 218.545,344.356 231.500 C 344.160 231.995,343.820 232.850,343.600 233.400 C 343.380 233.950,343.046 234.805,342.857 235.300 C 342.668 235.795,342.128 236.982,341.657 237.938 C 341.186 238.894,340.800 239.929,340.800 240.238 C 340.800 240.547,340.620 240.800,340.400 240.800 C 340.180 240.800,340.000 241.072,340.000 241.405 C 340.000 241.961,339.277 243.524,338.799 244.000 C 338.689 244.110,338.329 244.736,337.999 245.392 C 329.541 262.208,309.016 280.526,291.200 287.159 C 290.430 287.446,289.395 287.843,288.900 288.040 C 286.556 288.977,286.082 289.141,284.400 289.593 C 283.410 289.860,282.287 290.240,281.905 290.439 C 281.523 290.638,280.769 290.800,280.229 290.800 C 279.689 290.800,279.148 290.961,279.026 291.158 C 278.905 291.355,278.129 291.615,277.303 291.737 C 276.476 291.859,274.810 292.149,273.600 292.381 C 267.711 293.508,264.338 293.768,255.600 293.768 C 246.862 293.768,243.489 293.508,237.600 292.381 C 236.390 292.149,234.724 291.859,233.897 291.737 C 233.071 291.615,232.295 291.355,232.174 291.158 C 232.052 290.961,231.580 290.800,231.124 290.800 C 230.385 290.800,224.273 288.895,222.200 288.019 C 221.760 287.833,220.770 287.448,220.000 287.165 C 214.140 285.004,203.127 278.510,196.788 273.475 C 195.074 272.114,180.362 257.680,164.095 241.400 C 130.264 207.540,132.606 210.340,129.130 199.602 C 128.569 197.870,128.548 187.221,129.103 185.706 C 129.325 185.098,129.741 183.790,130.026 182.800 C 132.335 174.789,139.752 166.536,147.439 163.424 C 148.958 162.810,150.560 162.161,151.000 161.983 C 152.754 161.275,154.432 161.071,159.800 160.912 C 162.880 160.821,166.030 160.924,166.800 161.141 C 167.570 161.357,169.010 161.761,170.000 162.039 C 177.083 164.027,177.985 164.799,206.290 193.068 C 235.493 222.233,233.947 220.963,240.200 220.945 C 250.554 220.915,257.300 210.233,252.644 201.239 C 251.495 199.020,198.673 145.643,193.600 141.575 C 192.390 140.605,191.310 139.697,191.200 139.558 C 189.926 137.947,174.003 129.200,172.345 129.200 C 172.008 129.200,171.611 129.078,171.462 128.929 C 171.022 128.489,165.876 126.822,164.924 126.810 C 164.442 126.805,163.948 126.639,163.826 126.442 C 163.705 126.245,162.929 125.982,162.103 125.857 C 161.276 125.732,159.340 125.411,157.800 125.143 C 154.222 124.520,136.330 124.494,132.800 125.107 C 129.598 125.662,127.039 126.213,125.200 126.743 C 124.430 126.965,123.350 127.263,122.800 127.406 C 122.250 127.550,121.440 127.815,121.000 127.995 C 120.560 128.176,118.670 128.917,116.800 129.641 C 103.682 134.725,90.626 145.166,82.584 157.006 C 79.782 161.131,76.428 167.349,74.711 171.600 C 74.488 172.150,74.148 172.913,73.953 173.295 C 73.759 173.677,73.600 174.341,73.600 174.771 C 73.600 175.201,73.441 175.651,73.246 175.771 C 73.051 175.892,72.796 176.487,72.679 177.095 C 72.562 177.703,72.257 178.920,72.003 179.800 C 70.669 184.407,70.019 188.597,69.643 195.000 C 69.317 200.548,69.649 208.744,70.357 212.600 C 70.559 213.700,70.846 215.320,70.995 216.200 C 71.144 217.080,71.411 218.250,71.587 218.800 C 71.763 219.350,72.129 220.610,72.399 221.600 C 72.670 222.590,73.034 223.760,73.208 224.200 C 73.383 224.640,73.827 225.810,74.196 226.800 C 79.662 241.484,89.975 254.317,103.751 263.575 C 109.277 267.290,122.648 273.200,125.524 273.200 C 125.980 273.200,126.452 273.361,126.574 273.558 C 126.695 273.755,127.471 274.018,128.297 274.143 C 129.124 274.268,131.060 274.589,132.600 274.857 C 136.151 275.476,154.056 275.506,157.600 274.900 C 159.030 274.656,160.920 274.271,161.800 274.046 C 162.680 273.821,164.210 273.430,165.200 273.177 C 167.976 272.469,171.222 272.262,171.721 272.761 C 171.962 273.002,172.452 273.200,172.808 273.200 C 175.868 273.200,180.369 282.736,178.000 284.200 C 177.780 284.336,177.600 284.756,177.600 285.132 C 177.600 286.183,175.466 288.513,173.743 289.344 C 172.894 289.754,171.887 290.249,171.505 290.444 C 171.123 290.640,170.369 290.800,169.829 290.800 C 169.289 290.800,168.748 290.961,168.626 291.158 C 168.505 291.355,167.729 291.615,166.903 291.737 C 166.076 291.859,164.410 292.149,163.200 292.381 C 157.311 293.508,153.938 293.768,145.200 293.768 C 136.462 293.768,133.089 293.508,127.200 292.381 C 125.990 292.149,124.324 291.859,123.497 291.737 C 122.671 291.615,121.895 291.355,121.774 291.158 C 121.652 290.961,121.171 290.800,120.705 290.800 C 119.804 290.800,117.461 290.135,116.305 289.551 C 115.923 289.358,115.336 289.200,115.000 289.200 C 114.664 289.200,114.077 289.041,113.695 288.847 C 112.886 288.435,111.567 287.892,109.600 287.159 C 104.115 285.117,93.290 278.890,87.819 274.631 C 74.891 264.564,63.003 248.922,58.003 235.400 C 57.550 234.176,56.747 232.279,56.353 231.505 C 56.159 231.123,56.000 230.459,56.000 230.029 C 56.000 229.599,55.841 229.149,55.646 229.029 C 55.451 228.908,55.199 228.313,55.084 227.705 C 54.970 227.097,54.492 225.160,54.024 223.400 C 50.220 209.114,50.220 190.886,54.024 176.600 C 54.492 174.840,54.970 172.903,55.084 172.295 C 55.199 171.687,55.451 171.092,55.646 170.971 C 55.841 170.851,56.000 170.401,56.000 169.971 C 56.000 169.541,56.180 168.832,56.400 168.395 C 56.620 167.958,56.980 167.242,57.200 166.805 C 57.420 166.368,57.600 165.826,57.600 165.601 C 57.600 163.429,68.129 144.605,70.354 142.800 C 70.489 142.690,71.225 141.790,71.988 140.800 C 75.352 136.440,81.640 130.152,86.000 126.788 C 86.990 126.025,87.890 125.301,88.000 125.181 C 88.110 125.060,88.830 124.525,89.600 123.992 C 90.370 123.458,91.349 122.702,91.775 122.311 C 92.202 121.920,92.772 121.600,93.042 121.600 C 93.312 121.600,93.593 121.465,93.667 121.300 C 94.134 120.249,109.279 112.400,110.840 112.400 C 111.044 112.400,111.568 112.220,112.005 112.000 C 112.442 111.780,113.158 111.420,113.595 111.200 C 114.032 110.980,114.741 110.800,115.171 110.800 C 115.601 110.800,116.064 110.620,116.200 110.400 C 116.336 110.180,116.966 110.000,117.600 110.000 C 118.234 110.000,118.851 109.841,118.971 109.646 C 119.092 109.451,119.687 109.190,120.295 109.064 C 120.903 108.939,122.300 108.639,123.400 108.400 C 127.622 107.478,129.504 107.153,132.530 106.819 C 134.251 106.629,135.777 106.356,135.921 106.212 C 136.322 105.811,155.022 106.271,158.200 106.760 " stroke="none" fill="#2474b4" fill-rule="evenodd"></path><path id="path2" d="M135.200 106.377 C 134.650 106.541,135.910 106.598,138.000 106.505 C 140.090 106.412,141.980 106.274,142.200 106.199 C 143.026 105.918,136.157 106.092,135.200 106.377 M148.200 106.199 C 148.420 106.274,150.310 106.412,152.400 106.505 C 154.490 106.598,155.750 106.541,155.200 106.377 C 154.243 106.092,147.374 105.918,148.200 106.199 M245.600 106.380 C 245.050 106.546,246.220 106.594,248.200 106.488 C 250.180 106.381,251.875 106.228,251.967 106.147 C 252.280 105.871,246.603 106.079,245.600 106.380 M258.200 106.200 C 258.420 106.276,260.400 106.412,262.600 106.503 C 264.800 106.594,266.150 106.536,265.600 106.374 C 264.638 106.091,257.383 105.920,258.200 106.200 M129.200 107.212 C 128.781 107.491,129.142 107.533,130.400 107.350 C 132.641 107.025,132.960 106.798,131.167 106.806 C 130.415 106.809,129.530 106.992,129.200 107.212 M158.033 106.944 C 158.125 107.024,159.010 107.196,160.000 107.327 C 161.202 107.486,161.534 107.447,161.000 107.210 C 160.236 106.872,157.686 106.643,158.033 106.944 M239.800 107.210 C 239.266 107.447,239.598 107.486,240.800 107.327 C 241.790 107.196,242.675 107.024,242.767 106.944 C 243.114 106.643,240.564 106.872,239.800 107.210 M268.433 106.944 C 268.525 107.024,269.410 107.196,270.400 107.327 C 271.602 107.486,271.934 107.447,271.400 107.210 C 270.636 106.872,268.086 106.643,268.433 106.944 M125.200 108.018 C 124.762 108.315,124.924 108.352,125.800 108.156 C 127.271 107.827,127.590 107.598,126.567 107.606 C 126.145 107.609,125.530 107.795,125.200 108.018 M163.233 107.744 C 163.325 107.823,163.940 108.008,164.600 108.156 C 165.476 108.352,165.638 108.315,165.200 108.018 C 164.660 107.653,162.832 107.398,163.233 107.744 M235.600 108.018 C 235.162 108.315,235.324 108.352,236.200 108.156 C 237.671 107.827,237.990 107.598,236.967 107.606 C 236.545 107.609,235.930 107.795,235.600 108.018 M273.233 107.743 C 273.325 107.821,274.030 108.001,274.800 108.142 C 275.785 108.323,276.022 108.282,275.600 108.006 C 275.058 107.650,272.837 107.403,273.233 107.743 M121.600 108.818 C 121.162 109.115,121.324 109.152,122.200 108.956 C 123.671 108.627,123.990 108.398,122.967 108.406 C 122.545 108.409,121.930 108.595,121.600 108.818 M167.400 108.800 C 168.501 109.273,168.892 109.273,168.600 108.800 C 168.464 108.580,167.958 108.413,167.476 108.428 C 166.631 108.455,166.629 108.469,167.400 108.800 M232.200 108.800 C 231.908 109.273,232.299 109.273,233.400 108.800 C 234.171 108.469,234.169 108.455,233.324 108.428 C 232.842 108.413,232.336 108.580,232.200 108.800 M277.800 108.800 C 278.901 109.273,279.292 109.273,279.000 108.800 C 278.864 108.580,278.358 108.413,277.876 108.428 C 277.031 108.455,277.029 108.469,277.800 108.800 M224.647 112.401 C 223.851 113.282,223.200 114.128,223.200 114.281 C 223.200 114.435,223.335 114.389,223.501 114.180 C 223.667 113.971,224.422 113.125,225.180 112.300 C 225.937 111.475,226.453 110.800,226.325 110.800 C 226.197 110.800,225.442 111.521,224.647 112.401 M103.100 115.627 C 102.275 116.063,101.600 116.508,101.600 116.618 C 101.600 116.796,104.759 115.319,105.167 114.951 C 105.627 114.534,104.425 114.928,103.100 115.627 M97.300 118.846 C 95.937 119.719,95.495 120.306,96.700 119.643 C 97.618 119.139,99.056 118.027,98.800 118.019 C 98.690 118.016,98.015 118.388,97.300 118.846 M193.400 119.407 C 193.840 119.766,194.560 120.235,195.000 120.451 L 195.800 120.844 195.000 120.193 C 194.560 119.834,193.840 119.365,193.400 119.149 L 192.600 118.756 193.400 119.407 M303.800 119.407 C 304.240 119.766,304.960 120.235,305.400 120.451 L 306.200 120.844 305.400 120.193 C 304.960 119.834,304.240 119.365,303.800 119.149 L 303.000 118.756 303.800 119.407 M308.800 122.543 C 308.800 122.643,309.719 123.385,310.842 124.192 C 311.965 124.999,312.765 125.468,312.621 125.234 C 312.320 124.748,308.800 122.268,308.800 122.543 M199.600 123.325 C 199.600 123.424,200.261 124.009,201.068 124.625 C 201.876 125.241,202.411 125.541,202.256 125.291 C 201.940 124.779,199.600 123.047,199.600 123.325 M141.600 124.025 C 139.184 124.186,140.226 124.257,145.200 124.271 C 152.135 124.291,153.200 124.146,147.800 123.918 C 146.260 123.853,143.470 123.901,141.600 124.025 M251.800 124.027 C 249.601 124.182,250.790 124.262,255.600 124.280 C 259.450 124.295,262.330 124.249,262.000 124.178 C 260.706 123.899,254.837 123.812,251.800 124.027 M133.000 124.800 L 131.800 125.105 133.000 125.125 C 133.660 125.135,134.560 124.989,135.000 124.800 L 135.800 124.456 135.000 124.475 C 134.560 124.486,133.660 124.632,133.000 124.800 M155.400 124.781 C 156.168 125.129,158.310 125.356,157.967 125.053 C 157.875 124.972,157.080 124.796,156.200 124.662 C 155.085 124.493,154.842 124.529,155.400 124.781 M243.600 124.800 C 242.233 125.088,242.228 125.095,243.400 125.119 C 244.060 125.133,244.960 124.989,245.400 124.800 C 246.362 124.387,245.564 124.387,243.600 124.800 M265.800 124.800 C 266.240 124.989,267.050 125.138,267.600 125.132 L 268.600 125.120 267.600 124.800 C 267.050 124.624,266.240 124.474,265.800 124.468 L 265.000 124.456 265.800 124.800 M128.800 125.600 C 127.976 125.864,127.941 125.926,128.600 125.954 C 129.040 125.973,129.670 125.813,130.000 125.600 C 130.701 125.147,130.214 125.147,128.800 125.600 M160.400 125.582 C 160.730 125.805,161.345 125.991,161.767 125.994 C 162.790 126.002,162.471 125.773,161.000 125.444 C 160.124 125.248,159.962 125.285,160.400 125.582 M239.200 125.600 C 238.376 125.864,238.341 125.926,239.000 125.954 C 239.440 125.973,240.070 125.813,240.400 125.600 C 241.101 125.147,240.614 125.147,239.200 125.600 M270.800 125.582 C 271.130 125.805,271.745 125.991,272.167 125.994 C 273.190 126.002,272.871 125.773,271.400 125.444 C 270.524 125.248,270.362 125.285,270.800 125.582 M236.000 126.400 C 235.176 126.664,235.141 126.726,235.800 126.754 C 236.240 126.773,236.870 126.613,237.200 126.400 C 237.901 125.947,237.414 125.947,236.000 126.400 M228.538 127.294 C 228.792 127.456,229.990 127.588,231.200 127.588 C 232.410 127.588,233.608 127.456,233.862 127.294 C 234.116 127.132,232.918 127.000,231.200 127.000 C 229.482 127.000,228.284 127.132,228.538 127.294 M315.200 127.325 C 315.200 127.394,315.785 127.979,316.500 128.625 L 317.800 129.800 316.625 128.500 C 315.530 127.288,315.200 127.016,315.200 127.325 M116.933 129.122 C 116.016 129.495,115.116 129.950,114.933 130.133 C 114.750 130.317,115.590 130.077,116.800 129.600 C 118.010 129.123,119.075 128.658,119.167 128.567 C 119.507 128.227,118.551 128.465,116.933 129.122 M81.868 130.246 C 81.025 131.029,80.407 131.740,80.494 131.827 C 80.581 131.914,81.352 131.269,82.207 130.393 C 84.134 128.419,83.929 128.330,81.868 130.246 M321.400 133.200 C 323.371 135.180,325.073 136.800,325.183 136.800 C 325.293 136.800,323.771 135.180,321.800 133.200 C 319.829 131.220,318.127 129.600,318.017 129.600 C 317.907 129.600,319.429 131.220,321.400 133.200 M175.273 130.206 C 175.654 130.587,180.400 132.795,180.400 132.591 C 180.400 132.382,177.611 130.936,176.095 130.360 C 175.502 130.135,175.132 130.065,175.273 130.206 M237.204 159.392 C 253.152 175.448,266.280 188.678,266.377 188.792 C 266.475 188.906,265.991 188.280,265.303 187.400 C 264.614 186.520,251.486 173.290,236.130 158.000 L 208.208 130.200 237.204 159.392 M108.300 133.227 C 107.475 133.663,106.800 134.108,106.800 134.218 C 106.800 134.327,107.520 134.049,108.400 133.600 C 109.280 133.151,110.000 132.697,110.000 132.592 C 110.000 132.330,109.997 132.331,108.300 133.227 M182.400 133.779 C 182.400 133.889,182.940 134.259,183.600 134.600 C 184.260 134.941,184.800 135.131,184.800 135.021 C 184.800 134.911,184.260 134.541,183.600 134.200 C 182.940 133.859,182.400 133.669,182.400 133.779 M75.218 136.934 L 73.837 138.600 75.518 137.019 C 76.443 136.149,77.200 135.384,77.200 135.319 C 77.200 134.859,76.394 135.516,75.218 136.934 M103.069 136.437 C 102.042 137.118,101.089 137.856,100.952 138.077 C 100.750 138.404,104.588 135.934,105.167 135.364 C 105.686 134.853,104.697 135.359,103.069 136.437 M326.000 138.125 C 326.000 138.194,326.585 138.779,327.300 139.425 L 328.600 140.600 327.425 139.300 C 326.330 138.088,326.000 137.816,326.000 138.125 M72.426 140.122 L 71.451 141.400 72.726 140.225 C 74.051 139.003,74.203 138.785,73.700 138.822 C 73.535 138.834,72.962 139.419,72.426 140.122 M95.775 142.100 L 94.600 143.400 95.900 142.225 C 97.112 141.130,97.384 140.800,97.075 140.800 C 97.006 140.800,96.421 141.385,95.775 142.100 M305.200 142.563 C 306.256 143.742,310.000 146.984,310.000 146.719 C 310.000 146.633,308.695 145.412,307.100 144.004 C 305.505 142.597,304.650 141.949,305.200 142.563 M69.596 143.697 C 68.426 145.456,68.336 145.782,69.346 144.600 C 70.237 143.557,70.637 142.800,70.296 142.800 C 70.239 142.800,69.924 143.204,69.596 143.697 M91.200 146.200 C 89.561 147.850,88.310 149.200,88.420 149.200 C 88.530 149.200,89.961 147.850,91.600 146.200 C 93.239 144.550,94.490 143.200,94.380 143.200 C 94.270 143.200,92.839 144.550,91.200 146.200 M333.055 147.200 C 334.080 148.740,334.992 150.000,335.082 150.000 C 335.295 150.000,334.998 149.501,333.115 146.700 C 332.266 145.435,331.485 144.400,331.382 144.400 C 331.278 144.400,332.031 145.660,333.055 147.200 M216.578 163.996 C 226.930 174.333,235.580 182.921,235.800 183.080 C 236.020 183.238,227.651 174.780,217.202 164.284 C 206.752 153.788,198.103 145.200,197.980 145.200 C 197.857 145.200,206.227 153.658,216.578 163.996 M312.200 149.600 C 313.059 150.480,313.852 151.200,313.962 151.200 C 314.072 151.200,313.459 150.480,312.600 149.600 C 311.741 148.720,310.948 148.000,310.838 148.000 C 310.728 148.000,311.341 148.720,312.200 149.600 M86.975 150.900 L 85.800 152.200 87.100 151.025 C 87.815 150.379,88.400 149.794,88.400 149.725 C 88.400 149.416,88.070 149.688,86.975 150.900 M64.600 151.200 C 64.259 151.860,64.069 152.400,64.179 152.400 C 64.289 152.400,64.659 151.860,65.000 151.200 C 65.341 150.540,65.531 150.000,65.421 150.000 C 65.311 150.000,64.941 150.540,64.600 151.200 M317.008 155.558 C 317.815 156.681,318.557 157.600,318.657 157.600 C 318.932 157.600,316.452 154.080,315.966 153.779 C 315.732 153.635,316.201 154.435,317.008 155.558 M82.150 157.100 C 80.967 158.725,80.602 159.552,81.577 158.400 C 82.478 157.334,83.319 156.000,83.089 156.000 C 83.013 156.000,82.590 156.495,82.150 157.100 M319.409 159.026 C 319.781 159.701,320.441 160.691,320.876 161.226 L 321.667 162.200 320.991 160.974 C 320.619 160.299,319.959 159.309,319.524 158.774 L 318.733 157.800 319.409 159.026 M79.053 162.100 L 78.333 163.400 79.158 162.400 C 79.889 161.513,80.214 160.800,79.886 160.800 C 79.824 160.800,79.449 161.385,79.053 162.100 M154.000 161.200 C 153.236 161.694,154.058 161.694,155.600 161.200 L 156.600 160.880 155.600 160.846 C 155.050 160.827,154.330 160.987,154.000 161.200 M164.433 160.943 C 164.525 161.021,165.230 161.201,166.000 161.342 C 166.985 161.523,167.222 161.482,166.800 161.206 C 166.258 160.850,164.037 160.603,164.433 160.943 M144.700 164.629 C 143.205 165.440,143.296 165.778,144.800 165.000 C 145.460 164.659,146.000 164.294,146.000 164.190 C 146.000 163.932,145.957 163.947,144.700 164.629 M177.190 165.483 C 177.734 165.877,178.994 166.793,179.990 167.517 L 181.800 168.834 180.339 167.517 C 179.536 166.793,178.276 165.877,177.539 165.483 C 176.251 164.793,176.238 164.793,177.190 165.483 M137.586 170.300 L 135.400 172.600 137.700 170.414 C 139.837 168.382,140.183 168.000,139.886 168.000 C 139.824 168.000,138.789 169.035,137.586 170.300 M54.649 173.815 C 54.512 174.173,54.415 174.766,54.434 175.133 C 54.453 175.500,54.627 175.269,54.821 174.620 C 55.198 173.358,55.065 172.733,54.649 173.815 M53.056 180.084 C 52.921 180.588,52.828 181.450,52.849 182.000 C 52.872 182.589,53.031 182.271,53.236 181.225 C 53.603 179.352,53.473 178.527,53.056 180.084 M167.600 180.653 C 168.150 181.031,180.120 192.783,194.200 206.768 L 219.800 232.197 194.469 206.767 C 180.537 192.780,168.567 181.028,167.869 180.651 C 166.668 180.002,166.653 180.002,167.600 180.653 M328.812 180.400 C 328.812 180.730,328.987 181.270,329.200 181.600 C 329.545 182.133,329.588 182.133,329.588 181.600 C 329.588 181.270,329.413 180.730,329.200 180.400 C 328.855 179.867,328.812 179.867,328.812 180.400 M152.000 181.400 C 151.255 181.950,150.815 182.394,151.022 182.386 C 151.424 182.370,153.955 180.405,153.578 180.402 C 153.455 180.401,152.745 180.850,152.000 181.400 M329.656 183.600 C 329.656 183.930,329.811 184.560,330.000 185.000 C 330.217 185.504,330.344 185.578,330.344 185.200 C 330.344 184.870,330.189 184.240,330.000 183.800 C 329.783 183.296,329.656 183.222,329.656 183.600 M198.200 185.200 C 199.059 186.080,199.852 186.800,199.962 186.800 C 200.072 186.800,199.459 186.080,198.600 185.200 C 197.741 184.320,196.948 183.600,196.838 183.600 C 196.728 183.600,197.341 184.320,198.200 185.200 M52.101 186.200 C 52.105 187.080,52.187 187.393,52.283 186.895 C 52.379 186.398,52.375 185.678,52.275 185.295 C 52.175 184.913,52.096 185.320,52.101 186.200 M129.073 185.753 C 128.923 186.145,128.811 186.766,128.825 187.133 C 128.842 187.575,128.981 187.474,129.237 186.834 C 129.449 186.303,129.561 185.682,129.485 185.454 C 129.409 185.227,129.224 185.361,129.073 185.753 M348.501 186.600 C 348.505 187.480,348.587 187.793,348.683 187.295 C 348.779 186.798,348.775 186.078,348.675 185.695 C 348.575 185.313,348.496 185.720,348.501 186.600 M69.850 188.450 C 69.517 190.117,69.840 190.440,70.200 188.800 C 70.352 188.109,70.393 187.459,70.291 187.358 C 70.189 187.256,69.991 187.747,69.850 188.450 M330.487 187.800 C 330.491 188.240,330.632 189.140,330.800 189.800 C 331.074 190.878,331.106 190.898,331.113 190.000 C 331.117 189.450,330.976 188.550,330.800 188.000 C 330.549 187.216,330.481 187.173,330.487 187.800 M242.000 189.343 C 242.000 189.756,244.012 191.722,244.220 191.513 C 244.314 191.419,243.854 190.826,243.196 190.196 C 242.538 189.566,242.000 189.182,242.000 189.343 M146.524 192.600 C 146.526 193.920,146.601 194.412,146.690 193.693 C 146.779 192.974,146.777 191.894,146.686 191.293 C 146.595 190.692,146.522 191.280,146.524 192.600 M128.509 192.800 C 128.509 193.790,128.587 194.195,128.682 193.700 C 128.778 193.205,128.778 192.395,128.682 191.900 C 128.587 191.405,128.509 191.810,128.509 192.800 M51.370 200.000 C 51.370 204.730,51.428 206.665,51.498 204.300 C 51.569 201.935,51.569 198.065,51.498 195.700 C 51.428 193.335,51.370 195.270,51.370 200.000 M349.369 200.000 C 349.369 204.510,349.427 206.355,349.498 204.100 C 349.570 201.845,349.570 198.155,349.498 195.900 C 349.427 193.645,349.369 195.490,349.369 200.000 M69.272 195.200 C 69.229 196.410,69.111 198.390,69.010 199.600 L 68.826 201.800 69.227 199.600 C 69.448 198.390,69.566 196.410,69.490 195.200 L 69.351 193.000 69.272 195.200 M331.240 196.233 C 331.262 197.755,331.415 199.450,331.580 200.000 C 331.746 200.550,331.794 199.380,331.688 197.400 C 331.456 193.078,331.184 192.371,331.240 196.233 M128.834 198.200 C 128.822 198.640,128.987 199.270,129.200 199.600 C 129.714 200.395,129.714 199.396,129.200 198.200 L 128.856 197.400 128.834 198.200 M147.616 198.120 C 147.586 198.720,148.746 200.657,149.474 201.222 C 150.160 201.755,150.164 201.742,149.550 200.993 C 149.193 200.557,148.615 199.660,148.266 199.000 C 147.917 198.340,147.625 197.944,147.616 198.120 M214.600 201.600 C 215.459 202.480,216.252 203.200,216.362 203.200 C 216.472 203.200,215.859 202.480,215.000 201.600 C 214.141 200.720,213.348 200.000,213.238 200.000 C 213.128 200.000,213.741 200.720,214.600 201.600 M271.268 200.400 C 271.288 201.439,271.918 203.146,271.932 202.200 C 271.938 201.760,271.789 201.040,271.600 200.600 C 271.389 200.110,271.261 200.032,271.268 200.400 M331.331 203.800 C 331.333 205.340,331.405 205.921,331.492 205.091 C 331.579 204.261,331.577 203.001,331.489 202.291 C 331.400 201.581,331.329 202.260,331.331 203.800 M69.324 204.200 C 69.326 205.520,69.401 206.012,69.490 205.293 C 69.579 204.574,69.577 203.494,69.486 202.893 C 69.395 202.292,69.322 202.880,69.324 204.200 M254.114 207.400 C 254.117 208.500,254.195 208.903,254.287 208.295 C 254.379 207.686,254.377 206.786,254.282 206.295 C 254.187 205.803,254.111 206.300,254.114 207.400 M156.990 209.190 C 158.290 210.504,159.427 211.507,159.515 211.419 C 159.717 211.217,155.324 206.800,154.921 206.800 C 154.758 206.800,155.689 207.875,156.990 209.190 M330.640 210.840 C 330.493 211.757,330.452 212.585,330.547 212.680 C 330.642 212.776,330.846 212.110,331.000 211.200 C 331.154 210.290,331.196 209.462,331.093 209.360 C 330.990 209.257,330.787 209.923,330.640 210.840 M69.680 210.200 C 69.680 210.640,69.824 211.450,70.000 212.000 C 70.254 212.792,70.320 212.833,70.320 212.200 C 70.320 211.760,70.176 210.950,70.000 210.400 C 69.746 209.608,69.680 209.567,69.680 210.200 M52.109 213.600 C 52.109 214.590,52.187 214.995,52.282 214.500 C 52.378 214.005,52.378 213.195,52.282 212.700 C 52.187 212.205,52.109 212.610,52.109 213.600 M271.450 213.250 C 271.309 213.953,271.269 214.602,271.359 214.692 C 271.450 214.783,271.648 214.291,271.800 213.600 C 271.952 212.909,271.993 212.259,271.891 212.158 C 271.789 212.056,271.591 212.547,271.450 213.250 M348.501 213.400 C 348.505 214.280,348.587 214.593,348.683 214.095 C 348.779 213.598,348.775 212.878,348.675 212.495 C 348.575 212.113,348.496 212.520,348.501 213.400 M163.800 241.200 C 179.419 256.820,192.288 269.600,192.398 269.600 C 192.508 269.600,179.819 256.820,164.200 241.200 C 148.581 225.580,135.712 212.800,135.602 212.800 C 135.492 212.800,148.181 225.580,163.800 241.200 M70.456 214.800 C 70.456 215.130,70.611 215.760,70.800 216.200 C 71.017 216.704,71.144 216.778,71.144 216.400 C 71.144 216.070,70.989 215.440,70.800 215.000 C 70.583 214.496,70.456 214.422,70.456 214.800 M329.829 215.429 C 329.681 216.015,329.638 216.572,329.732 216.666 C 329.827 216.760,330.024 216.358,330.171 215.771 C 330.319 215.185,330.362 214.628,330.268 214.534 C 330.173 214.440,329.976 214.842,329.829 215.429 M183.684 235.785 C 194.180 246.335,202.820 254.884,202.884 254.783 C 202.948 254.682,194.360 246.051,183.800 235.602 L 164.600 216.604 183.684 235.785 M52.893 218.400 C 52.893 219.170,52.975 219.485,53.076 219.100 C 53.176 218.715,53.176 218.085,53.076 217.700 C 52.975 217.315,52.893 217.630,52.893 218.400 M230.999 217.955 C 231.439 218.465,232.339 219.136,232.999 219.447 C 233.708 219.780,233.891 219.804,233.446 219.506 C 233.032 219.228,232.132 218.556,231.446 218.014 C 230.243 217.062,230.227 217.060,230.999 217.955 M245.400 220.214 C 244.395 220.698,244.363 220.753,245.200 220.551 C 245.750 220.419,246.371 220.150,246.580 219.955 C 247.098 219.471,246.814 219.533,245.400 220.214 M238.137 221.344 C 239.259 221.550,240.942 221.552,242.137 221.349 C 243.997 221.032,243.806 220.997,240.200 220.992 C 236.685 220.988,236.435 221.030,238.137 221.344 M54.406 225.033 C 54.409 225.455,54.595 226.070,54.818 226.400 C 55.115 226.838,55.152 226.676,54.956 225.800 C 54.627 224.329,54.398 224.010,54.406 225.033 M346.046 224.867 C 346.021 225.234,345.896 225.864,345.770 226.267 C 345.552 226.962,345.563 226.963,345.997 226.287 C 346.248 225.896,346.373 225.266,346.273 224.887 C 346.111 224.268,346.088 224.266,346.046 224.867 M262.435 229.939 C 258.794 233.673,258.752 233.948,262.333 230.614 C 263.840 229.210,266.709 225.929,266.334 226.039 C 266.260 226.060,264.506 227.815,262.435 229.939 M255.900 235.029 C 254.405 235.840,254.496 236.178,256.000 235.400 C 256.660 235.059,257.200 234.694,257.200 234.590 C 257.200 234.332,257.157 234.347,255.900 235.029 M322.214 236.235 C 321.841 236.804,321.605 237.338,321.689 237.422 C 321.773 237.507,322.158 237.041,322.544 236.388 C 323.406 234.928,323.148 234.809,322.214 236.235 M79.549 238.600 C 79.765 239.040,80.234 239.760,80.593 240.200 L 81.244 241.000 80.851 240.200 C 80.635 239.760,80.166 239.040,79.807 238.600 L 79.156 237.800 79.549 238.600 M320.953 238.500 C 319.576 240.836,319.486 241.035,320.187 240.200 C 321.000 239.232,321.700 238.000,321.438 238.000 C 321.333 238.000,321.115 238.225,320.953 238.500 M233.600 238.800 C 233.930 239.013,234.650 239.173,235.200 239.154 L 236.200 239.120 235.200 238.800 C 233.658 238.306,232.836 238.306,233.600 238.800 M245.400 238.800 C 244.293 239.082,244.277 239.109,245.200 239.147 C 245.750 239.169,246.470 239.013,246.800 238.800 C 247.481 238.360,247.129 238.360,245.400 238.800 M316.575 245.068 C 315.959 245.876,315.659 246.411,315.909 246.256 C 316.421 245.940,318.153 243.600,317.875 243.600 C 317.776 243.600,317.191 244.261,316.575 245.068 M84.839 246.400 C 85.563 247.390,86.210 248.275,86.277 248.367 C 86.345 248.458,86.397 248.368,86.394 248.167 C 86.391 247.965,85.744 247.080,84.956 246.200 L 83.524 244.600 84.839 246.400 M64.830 249.000 C 65.324 249.880,65.900 250.780,66.110 251.000 C 66.709 251.628,65.339 249.094,64.596 248.200 C 64.230 247.760,64.335 248.120,64.830 249.000 M86.800 248.925 C 86.800 248.994,87.385 249.579,88.100 250.225 L 89.400 251.400 88.225 250.100 C 87.130 248.888,86.800 248.616,86.800 248.925 M312.575 250.100 L 311.400 251.400 312.700 250.225 C 313.415 249.579,314.000 248.994,314.000 248.925 C 314.000 248.616,313.670 248.888,312.575 250.100 M334.839 250.224 C 334.377 251.007,334.180 251.536,334.402 251.399 C 334.836 251.131,336.134 248.800,335.850 248.800 C 335.756 248.800,335.301 249.441,334.839 250.224 M91.200 253.800 C 92.395 255.010,93.463 256.000,93.573 256.000 C 93.683 256.000,92.795 255.010,91.600 253.800 C 90.405 252.590,89.337 251.600,89.227 251.600 C 89.117 251.600,90.005 252.590,91.200 253.800 M309.013 253.943 L 307.026 256.200 309.313 254.014 C 310.571 252.811,311.600 251.776,311.600 251.714 C 311.600 251.248,310.711 252.015,309.013 253.943 M67.056 252.500 C 67.792 253.716,70.093 256.800,70.263 256.800 C 70.366 256.800,69.694 255.720,68.768 254.400 C 67.297 252.303,66.197 251.083,67.056 252.500 M332.392 253.900 C 331.654 254.945,330.003 257.103,328.725 258.696 C 326.328 261.682,325.525 263.042,327.534 260.714 C 328.749 259.305,333.278 253.328,333.758 252.500 C 334.443 251.316,333.628 252.152,332.392 253.900 M94.000 256.125 C 94.000 256.194,94.585 256.779,95.300 257.425 L 96.600 258.600 95.425 257.300 C 94.330 256.088,94.000 255.816,94.000 256.125 M305.068 257.446 C 304.225 258.229,303.607 258.940,303.694 259.027 C 303.781 259.114,304.552 258.469,305.407 257.593 C 307.334 255.619,307.129 255.530,305.068 257.446 M97.600 259.325 C 97.600 259.424,98.261 260.009,99.068 260.625 C 99.876 261.241,100.411 261.541,100.256 261.291 C 99.940 260.779,97.600 259.047,97.600 259.325 M78.600 266.400 C 80.792 268.600,82.675 270.400,82.785 270.400 C 82.895 270.400,81.192 268.600,79.000 266.400 C 76.808 264.200,74.925 262.400,74.815 262.400 C 74.705 262.400,76.408 264.200,78.600 266.400 M321.392 266.900 L 317.800 270.600 321.500 267.008 C 323.535 265.033,325.200 263.368,325.200 263.308 C 325.200 263.018,324.728 263.464,321.392 266.900 M216.000 264.979 C 216.000 265.089,216.540 265.459,217.200 265.800 C 217.860 266.141,218.400 266.331,218.400 266.221 C 218.400 266.111,217.860 265.741,217.200 265.400 C 216.540 265.059,216.000 264.869,216.000 264.979 M108.400 266.598 C 108.400 266.865,114.049 269.685,114.227 269.506 C 114.307 269.427,113.028 268.697,111.386 267.884 C 109.744 267.071,108.400 266.493,108.400 266.598 M218.800 266.584 C 218.800 266.694,219.520 267.151,220.400 267.600 C 221.280 268.049,222.000 268.326,222.000 268.216 C 222.000 268.106,221.280 267.649,220.400 267.200 C 219.520 266.751,218.800 266.474,218.800 266.584 M289.200 268.000 C 287.550 268.858,286.339 269.569,286.510 269.580 C 286.935 269.607,292.400 266.838,292.400 266.595 C 292.400 266.325,292.532 266.267,289.200 268.000 M222.454 268.587 C 222.790 268.923,225.600 270.016,225.600 269.811 C 225.600 269.701,224.948 269.338,224.151 269.005 C 222.675 268.389,222.118 268.251,222.454 268.587 M166.937 272.706 C 166.682 272.868,167.700 273.000,169.198 273.000 C 170.695 273.000,171.838 272.865,171.737 272.700 C 171.500 272.314,167.546 272.319,166.937 272.706 M163.600 273.618 C 163.162 273.915,163.324 273.952,164.200 273.756 C 165.671 273.427,165.990 273.198,164.967 273.206 C 164.545 273.209,163.930 273.395,163.600 273.618 M128.033 274.144 C 128.125 274.223,128.740 274.408,129.400 274.556 C 130.276 274.752,130.438 274.715,130.000 274.418 C 129.460 274.053,127.632 273.798,128.033 274.144 M160.400 274.418 C 159.962 274.715,160.124 274.752,161.000 274.556 C 162.471 274.227,162.790 273.998,161.767 274.006 C 161.345 274.009,160.730 274.195,160.400 274.418 M174.400 274.125 C 174.400 274.194,174.985 274.779,175.700 275.425 L 177.000 276.600 175.825 275.300 C 174.730 274.088,174.400 273.816,174.400 274.125 M238.433 274.144 C 238.525 274.223,239.140 274.408,239.800 274.556 C 240.676 274.752,240.838 274.715,240.400 274.418 C 239.860 274.053,238.032 273.798,238.433 274.144 M270.800 274.418 C 270.362 274.715,270.524 274.752,271.400 274.556 C 272.871 274.227,273.190 273.998,272.167 274.006 C 271.745 274.009,271.130 274.195,270.800 274.418 M198.544 274.709 C 198.860 275.221,201.200 276.953,201.200 276.675 C 201.200 276.576,200.539 275.991,199.732 275.375 C 198.924 274.759,198.389 274.459,198.544 274.709 M133.000 275.200 C 133.660 275.368,134.560 275.514,135.000 275.525 L 135.800 275.544 135.000 275.200 C 134.560 275.011,133.660 274.865,133.000 274.875 L 131.800 274.895 133.000 275.200 M155.400 275.210 C 154.866 275.447,155.198 275.486,156.400 275.327 C 157.390 275.196,158.275 275.024,158.367 274.944 C 158.714 274.643,156.164 274.872,155.400 275.210 M242.833 274.947 C 242.925 275.028,243.720 275.204,244.600 275.338 C 245.715 275.507,245.958 275.471,245.400 275.219 C 244.632 274.871,242.490 274.644,242.833 274.947 M265.800 275.200 L 265.000 275.544 265.800 275.525 C 266.240 275.514,267.140 275.368,267.800 275.200 L 269.000 274.895 267.800 274.875 C 267.140 274.865,266.240 275.011,265.800 275.200 M141.800 275.965 C 143.780 276.094,146.930 276.095,148.800 275.968 C 151.208 275.803,150.158 275.734,145.200 275.732 C 140.010 275.730,139.131 275.790,141.800 275.965 M252.100 275.969 C 254.025 276.096,257.175 276.096,259.100 275.969 C 261.613 275.803,260.627 275.738,255.600 275.738 C 250.573 275.738,249.587 275.803,252.100 275.969 M177.800 281.398 C 177.800 283.005,177.935 284.238,178.100 284.137 C 178.486 283.900,178.481 279.547,178.094 278.937 C 177.932 278.682,177.800 279.790,177.800 281.398 M95.600 279.937 C 96.718 280.868,100.400 282.956,100.400 282.659 C 100.400 282.554,99.635 282.039,98.700 281.514 C 97.765 280.989,96.460 280.232,95.800 279.832 L 94.600 279.105 95.600 279.937 M304.500 280.046 C 303.137 280.919,302.695 281.506,303.900 280.843 C 304.818 280.339,306.256 279.227,306.000 279.219 C 305.890 279.216,305.215 279.588,304.500 280.046 M301.500 281.829 C 300.005 282.640,300.096 282.978,301.600 282.200 C 302.260 281.859,302.800 281.494,302.800 281.390 C 302.800 281.132,302.757 281.147,301.500 281.829 M177.200 285.533 C 177.200 285.790,176.466 286.734,175.570 287.630 C 174.673 288.527,174.306 289.065,174.753 288.825 C 175.782 288.274,177.797 285.663,177.456 285.322 C 177.315 285.182,177.200 285.277,177.200 285.533 M167.400 291.200 C 166.629 291.531,166.631 291.545,167.476 291.572 C 167.958 291.587,168.464 291.420,168.600 291.200 C 168.892 290.727,168.501 290.727,167.400 291.200 M232.200 291.200 C 232.336 291.420,232.842 291.587,233.324 291.572 C 234.169 291.545,234.171 291.531,233.400 291.200 C 232.299 290.727,231.908 290.727,232.200 291.200 M125.200 291.982 C 125.530 292.205,126.145 292.391,126.567 292.394 C 127.590 292.402,127.271 292.173,125.800 291.844 C 124.924 291.648,124.762 291.685,125.200 291.982 M164.000 292.000 C 163.176 292.264,163.141 292.326,163.800 292.354 C 164.240 292.373,164.870 292.213,165.200 292.000 C 165.901 291.547,165.414 291.547,164.000 292.000 M235.600 291.982 C 235.930 292.205,236.545 292.391,236.967 292.394 C 237.990 292.402,237.671 292.173,236.200 291.844 C 235.324 291.648,235.162 291.685,235.600 291.982 M274.400 292.000 C 273.576 292.264,273.541 292.326,274.200 292.354 C 274.640 292.373,275.270 292.213,275.600 292.000 C 276.301 291.547,275.814 291.547,274.400 292.000 M129.400 292.790 C 130.164 293.128,132.714 293.357,132.367 293.056 C 132.275 292.976,131.390 292.804,130.400 292.673 C 129.198 292.514,128.866 292.553,129.400 292.790 M159.200 292.800 C 157.833 293.088,157.828 293.095,159.000 293.119 C 159.660 293.133,160.560 292.989,161.000 292.800 C 161.962 292.387,161.164 292.387,159.200 292.800 M239.800 292.790 C 240.564 293.128,243.114 293.357,242.767 293.056 C 242.675 292.976,241.790 292.804,240.800 292.673 C 239.598 292.514,239.266 292.553,239.800 292.790 M269.600 292.800 C 268.233 293.088,268.228 293.095,269.400 293.119 C 270.060 293.133,270.960 292.989,271.400 292.800 C 272.362 292.387,271.564 292.387,269.600 292.800 M135.200 293.623 C 136.157 293.908,143.026 294.082,142.200 293.801 C 141.980 293.726,140.090 293.588,138.000 293.495 C 135.910 293.402,134.650 293.459,135.200 293.623 M151.600 293.600 L 148.600 293.856 151.400 293.888 C 152.940 293.906,154.650 293.776,155.200 293.600 C 156.378 293.223,156.025 293.223,151.600 293.600 M245.600 293.623 C 246.557 293.908,253.426 294.082,252.600 293.801 C 252.380 293.726,250.490 293.588,248.400 293.495 C 246.310 293.402,245.050 293.459,245.600 293.623 M261.400 293.600 L 257.800 293.849 261.200 293.885 C 263.070 293.904,265.050 293.776,265.600 293.600 C 266.752 293.231,266.737 293.231,261.400 293.600 " stroke="none" fill="#71a4cd" fill-rule="evenodd"></path><path id="path3" d="M143.700 106.291 C 144.525 106.378,145.875 106.378,146.700 106.291 C 147.525 106.205,146.850 106.134,145.200 106.134 C 143.550 106.134,142.875 106.205,143.700 106.291 M253.511 106.293 C 254.451 106.378,255.891 106.377,256.711 106.291 C 257.530 106.205,256.760 106.136,255.000 106.137 C 253.240 106.139,252.570 106.209,253.511 106.293 M142.900 123.876 C 143.285 123.976,143.915 123.976,144.300 123.876 C 144.685 123.775,144.370 123.693,143.600 123.693 C 142.830 123.693,142.515 123.775,142.900 123.876 M146.100 123.876 C 146.485 123.976,147.115 123.976,147.500 123.876 C 147.885 123.775,147.570 123.693,146.800 123.693 C 146.030 123.693,145.715 123.775,146.100 123.876 M252.900 123.876 C 253.285 123.976,253.915 123.976,254.300 123.876 C 254.685 123.775,254.370 123.693,253.600 123.693 C 252.830 123.693,252.515 123.775,252.900 123.876 M256.500 123.876 C 256.885 123.976,257.515 123.976,257.900 123.876 C 258.285 123.775,257.970 123.693,257.200 123.693 C 256.430 123.693,256.115 123.775,256.500 123.876 M78.581 133.700 L 77.000 135.400 78.700 133.819 C 80.281 132.348,80.584 132.000,80.281 132.000 C 80.216 132.000,79.451 132.765,78.581 133.700 M189.600 177.000 C 193.666 181.070,197.082 184.400,197.192 184.400 C 197.302 184.400,194.066 181.070,190.000 177.000 C 185.934 172.930,182.518 169.600,182.408 169.600 C 182.298 169.600,185.534 172.930,189.600 177.000 M206.200 193.600 C 210.596 198.000,214.282 201.600,214.392 201.600 C 214.502 201.600,210.996 198.000,206.600 193.600 C 202.204 189.200,198.518 185.600,198.408 185.600 C 198.298 185.600,201.804 189.200,206.200 193.600 M68.893 197.600 C 68.893 198.370,68.975 198.685,69.076 198.300 C 69.176 197.915,69.176 197.285,69.076 196.900 C 68.975 196.515,68.893 196.830,68.893 197.600 M331.701 197.800 C 331.705 198.680,331.787 198.993,331.883 198.495 C 331.979 197.998,331.975 197.278,331.875 196.895 C 331.775 196.513,331.696 196.920,331.701 197.800 M331.701 202.200 C 331.705 203.080,331.787 203.393,331.883 202.895 C 331.979 202.398,331.975 201.678,331.875 201.295 C 331.775 200.913,331.696 201.320,331.701 202.200 M222.600 210.000 C 226.555 213.960,229.882 217.200,229.992 217.200 C 230.102 217.200,226.955 213.960,223.000 210.000 C 219.045 206.040,215.718 202.800,215.608 202.800 C 215.498 202.800,218.645 206.040,222.600 210.000 M142.705 276.283 C 143.202 276.379,143.922 276.375,144.305 276.275 C 144.687 276.175,144.280 276.096,143.400 276.101 C 142.520 276.105,142.207 276.187,142.705 276.283 M146.500 276.276 C 146.885 276.376,147.515 276.376,147.900 276.276 C 148.285 276.175,147.970 276.093,147.200 276.093 C 146.430 276.093,146.115 276.175,146.500 276.276 M253.300 276.276 C 253.685 276.376,254.315 276.376,254.700 276.276 C 255.085 276.175,254.770 276.093,254.000 276.093 C 253.230 276.093,252.915 276.175,253.300 276.276 M256.500 276.276 C 256.885 276.376,257.515 276.376,257.900 276.276 C 258.285 276.175,257.970 276.093,257.200 276.093 C 256.430 276.093,256.115 276.175,256.500 276.276 M143.900 293.893 C 144.835 293.977,146.365 293.977,147.300 293.893 C 148.235 293.809,147.470 293.740,145.600 293.740 C 143.730 293.740,142.965 293.809,143.900 293.893 M253.891 293.889 C 254.601 293.977,255.861 293.979,256.691 293.892 C 257.521 293.805,256.940 293.733,255.400 293.731 C 253.860 293.729,253.181 293.800,253.891 293.889 " stroke="none" fill="#89b4d4" fill-rule="evenodd"></path><path id="path4" d="M135.000 106.800 C 133.068 107.065,133.054 107.076,134.600 107.114 C 135.480 107.136,136.920 107.005,137.800 106.823 C 139.842 106.401,138.020 106.386,135.000 106.800 M152.400 106.820 C 153.390 106.997,154.830 107.130,155.600 107.117 C 156.745 107.097,156.635 107.036,155.000 106.782 C 152.253 106.354,149.969 106.388,152.400 106.820 M245.400 106.800 C 243.468 107.065,243.454 107.076,245.000 107.114 C 245.880 107.136,247.320 107.005,248.200 106.823 C 250.242 106.401,248.420 106.386,245.400 106.800 M262.800 106.820 C 263.790 106.997,265.230 107.130,266.000 107.117 C 267.145 107.097,267.035 107.036,265.400 106.782 C 262.653 106.354,260.369 106.388,262.800 106.820 M129.200 107.600 C 127.833 107.888,127.828 107.895,129.000 107.919 C 129.660 107.933,130.560 107.789,131.000 107.600 C 131.962 107.187,131.164 107.187,129.200 107.600 M159.400 107.590 C 160.164 107.928,162.714 108.157,162.367 107.856 C 162.275 107.776,161.390 107.604,160.400 107.473 C 159.198 107.314,158.866 107.353,159.400 107.590 M239.600 107.600 C 238.233 107.888,238.228 107.895,239.400 107.919 C 240.060 107.933,240.960 107.789,241.400 107.600 C 242.362 107.187,241.564 107.187,239.600 107.600 M269.800 107.590 C 270.564 107.928,273.114 108.157,272.767 107.856 C 272.675 107.776,271.790 107.604,270.800 107.473 C 269.598 107.314,269.266 107.353,269.800 107.590 M125.000 108.400 C 123.893 108.682,123.877 108.709,124.800 108.747 C 125.350 108.769,126.070 108.613,126.400 108.400 C 127.081 107.960,126.729 107.960,125.000 108.400 M164.000 108.394 C 164.330 108.611,165.035 108.791,165.567 108.794 C 166.851 108.802,166.525 108.575,164.800 108.258 C 163.815 108.077,163.578 108.118,164.000 108.394 M235.400 108.400 C 234.293 108.682,234.277 108.709,235.200 108.747 C 235.750 108.769,236.470 108.613,236.800 108.400 C 237.481 107.960,237.129 107.960,235.400 108.400 M274.400 108.382 C 274.730 108.605,275.345 108.791,275.767 108.794 C 276.790 108.802,276.471 108.573,275.000 108.244 C 274.124 108.048,273.962 108.085,274.400 108.382 M121.600 109.200 C 120.776 109.464,120.741 109.526,121.400 109.554 C 121.840 109.573,122.470 109.413,122.800 109.200 C 123.501 108.747,123.014 108.747,121.600 109.200 M167.600 109.182 C 167.930 109.405,168.545 109.591,168.967 109.594 C 169.990 109.602,169.671 109.373,168.200 109.044 C 167.324 108.848,167.162 108.885,167.600 109.182 M232.000 109.200 C 231.176 109.464,231.141 109.526,231.800 109.554 C 232.240 109.573,232.870 109.413,233.200 109.200 C 233.901 108.747,233.414 108.747,232.000 109.200 M277.800 109.200 C 278.240 109.389,278.960 109.538,279.400 109.532 C 280.043 109.523,280.004 109.457,279.200 109.200 C 277.832 108.762,276.781 108.762,277.800 109.200 M118.800 110.000 C 117.976 110.264,117.941 110.326,118.600 110.354 C 119.040 110.373,119.670 110.213,120.000 110.000 C 120.701 109.547,120.214 109.547,118.800 110.000 M170.400 109.982 C 170.730 110.205,171.345 110.391,171.767 110.394 C 172.790 110.402,172.471 110.173,171.000 109.844 C 170.124 109.648,169.962 109.685,170.400 109.982 M229.200 110.000 C 228.376 110.264,228.341 110.326,229.000 110.354 C 229.440 110.373,230.070 110.213,230.400 110.000 C 231.101 109.547,230.614 109.547,229.200 110.000 M280.800 109.982 C 281.130 110.205,281.745 110.391,282.167 110.394 C 283.190 110.402,282.871 110.173,281.400 109.844 C 280.524 109.648,280.362 109.685,280.800 109.982 M224.929 112.500 C 224.484 112.995,223.976 113.670,223.801 114.000 C 223.463 114.637,223.555 114.550,225.176 112.700 C 225.706 112.095,226.049 111.600,225.939 111.600 C 225.829 111.600,225.375 112.005,224.929 112.500 M111.300 112.412 C 109.961 112.951,110.211 113.224,111.600 112.740 C 112.260 112.510,112.800 112.249,112.800 112.161 C 112.800 111.924,112.313 112.005,111.300 112.412 M182.454 114.187 C 182.790 114.523,185.600 115.616,185.600 115.411 C 185.600 115.301,184.948 114.938,184.151 114.605 C 182.675 113.989,182.118 113.851,182.454 114.187 M189.200 117.379 C 189.200 117.489,189.740 117.859,190.400 118.200 C 191.060 118.541,191.600 118.731,191.600 118.621 C 191.600 118.511,191.060 118.141,190.400 117.800 C 189.740 117.459,189.200 117.269,189.200 117.379 M299.600 117.379 C 299.600 117.489,300.140 117.859,300.800 118.200 C 301.460 118.541,302.000 118.731,302.000 118.621 C 302.000 118.511,301.460 118.141,300.800 117.800 C 300.140 117.459,299.600 117.269,299.600 117.379 M98.300 118.629 C 96.805 119.440,96.896 119.778,98.400 119.000 C 99.060 118.659,99.600 118.294,99.600 118.190 C 99.600 117.932,99.557 117.947,98.300 118.629 M93.295 121.811 C 92.143 122.586,91.200 123.308,91.200 123.415 C 91.200 123.521,92.190 122.951,93.400 122.147 C 95.322 120.871,95.887 120.400,95.495 120.400 C 95.437 120.400,94.447 121.035,93.295 121.811 M144.307 123.490 C 145.026 123.579,146.106 123.577,146.707 123.486 C 147.308 123.395,146.720 123.322,145.400 123.324 C 144.080 123.326,143.588 123.401,144.307 123.490 M254.300 123.489 C 255.015 123.578,256.185 123.578,256.900 123.489 C 257.615 123.401,257.030 123.328,255.600 123.328 C 254.170 123.328,253.585 123.401,254.300 123.489 M139.705 123.887 C 140.314 123.979,141.214 123.977,141.705 123.882 C 142.197 123.787,141.700 123.711,140.600 123.714 C 139.500 123.717,139.097 123.795,139.705 123.887 M148.905 123.887 C 149.514 123.979,150.414 123.977,150.905 123.882 C 151.397 123.787,150.900 123.711,149.800 123.714 C 148.700 123.717,148.297 123.795,148.905 123.887 M199.744 123.909 C 200.060 124.421,202.400 126.153,202.400 125.875 C 202.400 125.776,201.739 125.191,200.932 124.575 C 200.124 123.959,199.589 123.659,199.744 123.909 M249.900 123.882 C 250.395 123.978,251.205 123.978,251.700 123.882 C 252.195 123.787,251.790 123.709,250.800 123.709 C 249.810 123.709,249.405 123.787,249.900 123.882 M259.305 123.887 C 259.914 123.979,260.814 123.977,261.305 123.882 C 261.797 123.787,261.300 123.711,260.200 123.714 C 259.100 123.717,258.697 123.795,259.305 123.887 M133.000 124.396 C 132.502 124.608,133.031 124.651,134.400 124.512 C 135.610 124.389,136.675 124.223,136.767 124.144 C 137.111 123.847,133.767 124.070,133.000 124.396 M153.900 124.282 C 154.395 124.378,155.205 124.378,155.700 124.282 C 156.195 124.187,155.790 124.109,154.800 124.109 C 153.810 124.109,153.405 124.187,153.900 124.282 M245.100 124.282 C 245.595 124.378,246.405 124.378,246.900 124.282 C 247.395 124.187,246.990 124.109,246.000 124.109 C 245.010 124.109,244.605 124.187,245.100 124.282 M264.300 124.282 C 264.795 124.378,265.605 124.378,266.100 124.282 C 266.595 124.187,266.190 124.109,265.200 124.109 C 264.210 124.109,263.805 124.187,264.300 124.282 M310.033 124.130 C 310.125 124.201,310.830 124.666,311.600 125.163 L 313.000 126.066 311.800 125.035 C 311.140 124.468,310.435 124.003,310.233 124.002 C 310.032 124.001,309.942 124.058,310.033 124.130 M128.800 125.206 C 128.378 125.482,128.615 125.523,129.600 125.342 C 131.325 125.025,131.651 124.798,130.367 124.806 C 129.835 124.809,129.130 124.989,128.800 125.206 M158.833 124.947 C 158.925 125.028,159.720 125.204,160.600 125.338 C 161.715 125.507,161.958 125.471,161.400 125.219 C 160.632 124.871,158.490 124.644,158.833 124.947 M239.200 125.206 C 238.778 125.482,239.015 125.523,240.000 125.342 C 241.725 125.025,242.051 124.798,240.767 124.806 C 240.235 124.809,239.530 124.989,239.200 125.206 M269.233 124.947 C 269.325 125.028,270.120 125.204,271.000 125.338 C 272.115 125.507,272.358 125.471,271.800 125.219 C 271.032 124.871,268.890 124.644,269.233 124.947 M85.666 127.421 C 84.493 128.399,83.650 129.200,83.793 129.200 C 83.937 129.200,85.048 128.390,86.264 127.400 C 87.479 126.410,88.322 125.609,88.137 125.621 C 87.952 125.632,86.840 126.442,85.666 127.421 M125.600 126.018 C 125.162 126.315,125.324 126.352,126.200 126.156 C 127.671 125.827,127.990 125.598,126.967 125.606 C 126.545 125.609,125.930 125.795,125.600 126.018 M162.833 125.744 C 162.925 125.823,163.540 126.008,164.200 126.156 C 165.076 126.352,165.238 126.315,164.800 126.018 C 164.260 125.653,162.432 125.398,162.833 125.744 M236.000 126.018 C 235.562 126.315,235.724 126.352,236.600 126.156 C 238.071 125.827,238.390 125.598,237.367 125.606 C 236.945 125.609,236.330 125.795,236.000 126.018 M273.233 125.744 C 273.325 125.823,273.940 126.008,274.600 126.156 C 275.476 126.352,275.638 126.315,275.200 126.018 C 274.660 125.653,272.832 125.398,273.233 125.744 M233.000 126.800 C 232.496 127.017,232.422 127.144,232.800 127.144 C 233.130 127.144,233.760 126.989,234.200 126.800 C 234.704 126.583,234.778 126.456,234.400 126.456 C 234.070 126.456,233.440 126.611,233.000 126.800 M315.783 128.600 C 317.209 129.810,318.483 130.800,318.613 130.800 C 318.744 130.800,317.716 129.810,316.328 128.600 C 314.941 127.390,313.667 126.400,313.498 126.400 C 313.328 126.400,314.356 127.390,315.783 128.600 M78.813 133.787 C 76.518 136.090,74.721 138.025,74.820 138.087 C 74.919 138.150,76.881 136.266,79.180 133.900 C 81.479 131.535,83.275 129.600,83.173 129.600 C 83.070 129.600,81.108 131.484,78.813 133.787 M207.649 130.500 C 207.750 130.555,220.515 143.200,236.016 158.600 L 264.200 186.600 236.201 158.500 C 220.802 143.045,208.037 130.400,207.834 130.400 C 207.632 130.400,207.549 130.445,207.649 130.500 M321.614 133.810 C 323.036 135.356,324.282 136.564,324.381 136.495 C 324.481 136.427,323.318 135.162,321.796 133.685 L 319.028 131.000 321.614 133.810 M180.400 132.179 C 180.400 132.289,180.940 132.659,181.600 133.000 C 182.260 133.341,182.800 133.531,182.800 133.421 C 182.800 133.311,182.260 132.941,181.600 132.600 C 180.940 132.259,180.400 132.069,180.400 132.179 M183.800 134.207 C 184.240 134.566,184.960 135.035,185.400 135.251 L 186.200 135.644 185.400 134.993 C 184.960 134.634,184.240 134.165,183.800 133.949 L 183.000 133.556 183.800 134.207 M294.200 134.207 C 294.640 134.566,295.360 135.035,295.800 135.251 L 296.600 135.644 295.800 134.993 C 295.360 134.634,294.640 134.165,294.200 133.949 L 293.400 133.556 294.200 134.207 M299.200 137.315 C 299.200 137.531,303.560 140.800,303.847 140.800 C 303.965 140.800,303.553 140.384,302.931 139.875 C 301.372 138.600,299.200 137.110,299.200 137.315 M327.243 140.000 C 328.188 141.210,329.015 142.275,329.081 142.367 C 329.146 142.458,329.200 142.363,329.200 142.156 C 329.200 141.948,328.373 140.883,327.363 139.789 L 325.525 137.800 327.243 140.000 M72.744 140.300 C 71.475 141.832,71.019 142.542,71.481 142.265 C 71.993 141.958,73.769 139.600,73.489 139.600 C 73.398 139.600,73.063 139.915,72.744 140.300 M192.000 139.688 C 192.000 139.766,192.855 140.533,193.900 141.392 C 194.945 142.251,195.440 142.540,195.000 142.034 C 194.222 141.139,192.000 139.402,192.000 139.688 M306.971 143.681 C 308.495 145.099,310.835 147.423,312.171 148.846 C 313.507 150.269,314.153 150.886,313.608 150.217 C 311.717 147.899,308.191 144.331,306.200 142.721 C 304.902 141.672,305.173 142.009,306.971 143.681 M91.183 145.900 C 87.749 149.422,83.817 153.763,85.839 151.800 C 87.846 149.850,95.310 142.000,95.156 142.000 C 95.062 142.000,93.274 143.755,91.183 145.900 M331.199 145.152 C 332.160 146.522,333.127 147.755,333.347 147.891 C 333.568 148.027,332.962 147.018,332.001 145.648 C 331.040 144.278,330.073 143.045,329.853 142.909 C 329.632 142.773,330.238 143.782,331.199 145.152 M224.000 171.000 C 239.069 186.070,251.488 198.400,251.598 198.400 C 251.708 198.400,239.469 186.070,224.400 171.000 C 209.331 155.930,196.912 143.600,196.802 143.600 C 196.692 143.600,208.931 155.930,224.000 171.000 M334.215 149.500 C 335.556 151.585,336.000 152.177,336.000 151.880 C 336.000 151.496,333.955 148.400,333.701 148.400 C 333.595 148.400,333.826 148.895,334.215 149.500 M64.614 151.835 C 64.241 152.404,64.005 152.938,64.089 153.022 C 64.173 153.107,64.558 152.641,64.944 151.988 C 65.806 150.528,65.548 150.409,64.614 151.835 M337.041 154.200 C 337.641 155.300,338.302 156.380,338.510 156.600 C 339.103 157.227,337.341 153.895,336.606 153.000 C 336.245 152.560,336.441 153.100,337.041 154.200 M83.775 154.268 C 83.159 155.076,82.859 155.611,83.109 155.456 C 83.621 155.140,85.353 152.800,85.075 152.800 C 84.976 152.800,84.391 153.461,83.775 154.268 M318.656 157.352 C 319.480 158.576,320.228 159.506,320.316 159.417 C 320.515 159.219,318.148 155.739,317.573 155.383 C 317.344 155.242,317.831 156.128,318.656 157.352 M159.111 161.093 C 160.051 161.178,161.491 161.177,162.311 161.091 C 163.130 161.005,162.360 160.936,160.600 160.937 C 158.840 160.939,158.170 161.009,159.111 161.093 M166.433 161.743 C 166.525 161.821,167.230 162.001,168.000 162.142 C 168.985 162.323,169.222 162.282,168.800 162.006 C 168.258 161.650,166.037 161.403,166.433 161.743 M146.300 164.226 C 145.255 164.770,144.400 165.305,144.400 165.414 C 144.400 165.593,148.360 163.723,148.767 163.352 C 149.262 162.901,147.961 163.362,146.300 164.226 M175.633 164.923 C 177.715 166.465,180.021 167.958,179.821 167.634 C 179.505 167.123,176.178 164.800,175.761 164.800 C 175.599 164.800,175.542 164.856,175.633 164.923 M182.600 170.400 C 183.906 171.720,185.065 172.800,185.175 172.800 C 185.285 172.800,184.306 171.720,183.000 170.400 C 181.694 169.080,180.535 168.000,180.425 168.000 C 180.315 168.000,181.294 169.080,182.600 170.400 M137.978 170.300 L 136.600 171.800 138.100 170.422 C 139.496 169.138,139.784 168.800,139.478 168.800 C 139.412 168.800,138.737 169.475,137.978 170.300 M346.056 176.400 C 346.056 176.730,346.211 177.360,346.400 177.800 C 346.617 178.304,346.744 178.378,346.744 178.000 C 346.744 177.670,346.589 177.040,346.400 176.600 C 346.183 176.096,346.056 176.022,346.056 176.400 M328.644 178.200 C 328.973 179.671,329.202 179.990,329.194 178.967 C 329.191 178.545,329.005 177.930,328.782 177.600 C 328.485 177.162,328.448 177.324,328.644 178.200 M158.138 178.306 C 157.884 178.468,159.002 178.600,160.623 178.600 C 162.244 178.600,163.262 178.478,162.885 178.328 C 161.953 177.958,158.708 177.943,158.138 178.306 M53.646 179.667 C 53.621 180.034,53.496 180.664,53.370 181.067 C 53.152 181.762,53.163 181.763,53.597 181.087 C 53.848 180.696,53.973 180.066,53.873 179.687 C 53.711 179.068,53.688 179.066,53.646 179.667 M346.856 180.000 C 346.856 180.330,347.011 180.960,347.200 181.400 C 347.417 181.904,347.544 181.978,347.544 181.600 C 347.544 181.270,347.389 180.640,347.200 180.200 C 346.983 179.696,346.856 179.622,346.856 180.000 M150.171 182.503 L 149.000 183.797 150.200 182.799 C 150.860 182.249,151.475 181.755,151.567 181.700 C 151.658 181.645,151.645 181.512,151.538 181.404 C 151.430 181.296,150.815 181.791,150.171 182.503 M194.000 206.200 C 207.749 219.950,219.088 231.200,219.198 231.200 C 219.308 231.200,208.149 219.950,194.400 206.200 C 180.651 192.450,169.312 181.200,169.202 181.200 C 169.092 181.200,180.251 192.450,194.000 206.200 M197.392 185.105 C 199.588 187.357,201.471 189.200,201.576 189.200 C 201.681 189.200,200.964 188.357,199.983 187.327 C 197.643 184.868,197.663 184.888,195.373 182.805 C 194.288 181.817,195.197 182.852,197.392 185.105 M130.064 183.544 C 129.809 184.396,129.613 185.342,129.628 185.646 C 129.643 185.951,129.924 185.326,130.252 184.258 C 130.580 183.190,130.777 182.243,130.689 182.155 C 130.600 182.067,130.319 182.692,130.064 183.544 M52.622 184.622 C 52.472 185.425,52.438 186.172,52.548 186.282 C 52.658 186.392,52.872 185.825,53.022 185.022 C 53.173 184.219,53.206 183.473,53.096 183.363 C 52.986 183.253,52.773 183.819,52.622 184.622 M347.680 184.200 C 347.680 184.640,347.824 185.450,348.000 186.000 C 348.254 186.792,348.320 186.833,348.320 186.200 C 348.320 185.760,348.176 184.950,348.000 184.400 C 347.746 183.608,347.680 183.567,347.680 184.200 M330.487 185.600 C 330.483 186.150,330.624 187.050,330.800 187.600 C 331.231 188.944,331.231 187.492,330.800 185.800 C 330.526 184.722,330.494 184.702,330.487 185.600 M51.788 191.388 C 51.631 193.064,51.589 194.523,51.695 194.629 C 51.801 194.734,52.012 193.446,52.165 191.765 C 52.317 190.084,52.359 188.626,52.258 188.524 C 52.157 188.423,51.945 189.712,51.788 191.388 M128.950 192.600 C 128.951 195.020,129.016 195.958,129.096 194.685 C 129.176 193.412,129.175 191.432,129.094 190.285 C 129.014 189.138,128.949 190.180,128.950 192.600 M146.252 189.700 C 145.934 190.888,145.984 194.817,146.328 195.685 C 146.478 196.062,146.600 194.667,146.600 192.585 C 146.600 188.424,146.598 188.409,146.252 189.700 M348.481 189.800 C 348.475 190.460,348.610 191.900,348.782 193.000 C 349.087 194.959,349.094 194.967,349.124 193.400 C 349.140 192.520,349.005 191.080,348.823 190.200 C 348.540 188.830,348.490 188.773,348.481 189.800 M69.309 190.800 C 69.309 191.790,69.387 192.195,69.482 191.700 C 69.578 191.205,69.578 190.395,69.482 189.900 C 69.387 189.405,69.309 189.810,69.309 190.800 M331.301 191.000 C 331.305 191.880,331.387 192.193,331.483 191.695 C 331.579 191.198,331.575 190.478,331.475 190.095 C 331.375 189.713,331.296 190.120,331.301 191.000 M267.560 191.800 C 268.234 193.105,268.788 193.828,268.785 193.400 C 268.783 193.180,268.414 192.550,267.964 192.000 C 267.421 191.336,267.285 191.269,267.560 191.800 M68.914 194.600 C 68.917 195.700,68.995 196.103,69.087 195.495 C 69.179 194.886,69.177 193.986,69.082 193.495 C 68.987 193.003,68.911 193.500,68.914 194.600 M331.714 194.600 C 331.717 195.700,331.795 196.103,331.887 195.495 C 331.979 194.886,331.977 193.986,331.882 193.495 C 331.787 193.003,331.711 193.500,331.714 194.600 M214.592 202.305 C 216.788 204.557,218.671 206.400,218.776 206.400 C 218.881 206.400,218.164 205.557,217.183 204.527 C 214.843 202.068,214.863 202.088,212.573 200.005 C 211.488 199.017,212.397 200.052,214.592 202.305 M270.658 199.600 C 270.975 201.325,271.202 201.651,271.194 200.367 C 271.191 199.835,271.011 199.130,270.794 198.800 C 270.518 198.378,270.477 198.615,270.658 199.600 M176.400 229.000 C 191.469 244.070,203.888 256.400,203.998 256.400 C 204.108 256.400,191.869 244.070,176.800 229.000 C 161.731 213.930,149.312 201.600,149.202 201.600 C 149.092 201.600,161.331 213.930,176.400 229.000 M68.914 205.400 C 68.917 206.500,68.995 206.903,69.087 206.295 C 69.179 205.686,69.177 204.786,69.082 204.295 C 68.987 203.803,68.911 204.300,68.914 205.400 M271.746 207.400 C 271.747 209.600,271.814 210.449,271.895 209.287 C 271.976 208.124,271.976 206.324,271.893 205.287 C 271.811 204.249,271.745 205.200,271.746 207.400 M331.714 205.400 C 331.717 206.500,331.795 206.903,331.887 206.295 C 331.979 205.686,331.977 204.786,331.882 204.295 C 331.787 203.803,331.711 204.300,331.714 205.400 M254.200 207.400 C 254.200 209.228,254.332 210.516,254.494 210.262 C 254.656 210.008,254.788 208.720,254.788 207.400 C 254.788 206.080,254.656 204.792,254.494 204.538 C 254.332 204.284,254.200 205.572,254.200 207.400 M348.636 207.939 C 348.475 209.555,348.431 210.964,348.537 211.070 C 348.801 211.334,349.331 206.190,349.107 205.530 C 349.009 205.239,348.797 206.322,348.636 207.939 M51.680 206.800 C 51.668 207.570,51.803 209.010,51.980 210.000 C 52.276 211.667,52.301 211.697,52.320 210.400 C 52.332 209.630,52.197 208.190,52.020 207.200 C 51.724 205.533,51.699 205.503,51.680 206.800 M69.309 209.200 C 69.309 210.190,69.387 210.595,69.482 210.100 C 69.578 209.605,69.578 208.795,69.482 208.300 C 69.387 207.805,69.309 208.210,69.309 209.200 M331.301 209.000 C 331.305 209.880,331.387 210.193,331.483 209.695 C 331.579 209.198,331.575 208.478,331.475 208.095 C 331.375 207.713,331.296 208.120,331.301 209.000 M133.253 208.800 C 133.511 209.350,134.489 210.790,135.426 212.000 C 137.019 214.057,194.797 272.000,195.255 272.000 C 195.371 272.000,182.427 258.995,166.491 243.100 C 141.312 217.986,135.905 212.358,133.292 208.542 C 132.866 207.920,132.860 207.962,133.253 208.800 M330.669 212.756 C 330.521 213.495,330.420 214.482,330.444 214.950 C 330.468 215.418,330.647 214.990,330.842 214.000 C 331.037 213.010,331.138 212.023,331.067 211.806 C 330.996 211.590,330.817 212.017,330.669 212.756 M347.822 214.622 C 347.672 215.425,347.628 216.162,347.726 216.260 C 347.824 216.357,348.027 215.781,348.178 214.978 C 348.328 214.175,348.372 213.438,348.274 213.340 C 348.176 213.243,347.973 213.819,347.822 214.622 M52.468 214.200 C 52.474 214.640,52.624 215.450,52.800 216.000 L 53.120 217.000 53.132 216.000 C 53.138 215.450,52.989 214.640,52.800 214.200 L 52.456 213.400 52.468 214.200 M270.854 214.267 C 270.825 214.744,270.696 215.464,270.570 215.867 C 270.352 216.561,270.364 216.562,270.796 215.888 C 271.047 215.497,271.175 214.777,271.081 214.288 C 270.909 213.401,270.909 213.401,270.854 214.267 M228.201 215.937 C 228.860 216.673,230.120 217.824,231.000 218.495 L 232.600 219.716 231.200 218.391 C 230.430 217.662,229.170 216.511,228.401 215.833 L 227.002 214.600 228.201 215.937 M70.641 217.200 C 70.952 219.082,72.039 222.894,72.215 222.719 C 72.355 222.578,70.964 216.957,70.601 216.200 C 70.496 215.980,70.514 216.430,70.641 217.200 M250.254 217.433 C 249.623 217.987,249.187 218.520,249.283 218.616 C 249.379 218.713,249.974 218.254,250.604 217.596 C 251.996 216.143,251.816 216.059,250.254 217.433 M53.256 218.600 C 53.256 219.040,53.411 219.760,53.600 220.200 L 53.944 221.000 53.944 220.200 C 53.944 219.760,53.789 219.040,53.600 218.600 L 53.256 217.800 53.256 218.600 M347.000 219.200 C 346.848 219.891,346.807 220.541,346.909 220.642 C 347.011 220.744,347.209 220.253,347.350 219.550 C 347.491 218.847,347.531 218.198,347.441 218.108 C 347.350 218.017,347.152 218.509,347.000 219.200 M237.515 221.672 C 237.892 221.821,239.100 221.944,240.200 221.944 C 241.300 221.944,242.508 221.821,242.885 221.672 C 243.262 221.522,242.054 221.400,240.200 221.400 C 238.346 221.400,237.138 221.522,237.515 221.672 M267.853 222.500 L 267.133 223.800 267.958 222.800 C 268.689 221.913,269.014 221.200,268.686 221.200 C 268.624 221.200,268.249 221.785,267.853 222.500 M325.913 229.381 C 325.542 230.381,325.317 231.200,325.414 231.200 C 325.693 231.200,326.831 228.294,326.703 227.909 C 326.639 227.718,326.284 228.380,325.913 229.381 M262.378 229.900 L 261.000 231.400 262.500 230.022 C 263.325 229.263,264.000 228.588,264.000 228.522 C 264.000 228.216,263.662 228.504,262.378 229.900 M224.000 234.616 C 224.000 234.938,229.817 237.604,230.474 237.583 C 230.763 237.574,230.010 237.153,228.800 236.648 C 227.590 236.144,226.015 235.427,225.300 235.055 C 224.585 234.683,224.000 234.486,224.000 234.616 M252.800 236.200 C 252.250 236.514,251.980 236.772,252.200 236.772 C 252.420 236.772,253.050 236.514,253.600 236.200 C 254.150 235.886,254.420 235.628,254.200 235.628 C 253.980 235.628,253.350 235.886,252.800 236.200 M79.324 239.000 C 79.662 239.660,80.238 240.560,80.604 241.000 C 80.970 241.440,80.865 241.080,80.370 240.200 C 79.280 238.258,78.464 237.322,79.324 239.000 M238.700 239.093 C 239.635 239.177,241.165 239.177,242.100 239.093 C 243.035 239.009,242.270 238.940,240.400 238.940 C 238.530 238.940,237.765 239.009,238.700 239.093 M60.679 240.700 C 60.967 241.494,62.000 243.097,62.000 242.750 C 62.000 242.402,60.763 240.000,60.583 240.000 C 60.496 240.000,60.539 240.315,60.679 240.700 M316.668 245.537 C 315.225 247.483,312.290 250.948,310.146 253.237 C 307.946 255.587,307.341 256.355,308.758 255.000 C 311.555 252.326,316.414 246.687,318.364 243.852 C 320.507 240.738,319.447 241.791,316.668 245.537 M83.198 244.835 C 83.882 245.844,85.254 247.554,86.247 248.635 L 88.052 250.600 86.126 248.149 C 82.613 243.677,81.752 242.703,83.198 244.835 M335.753 248.100 C 334.376 250.436,334.286 250.635,334.987 249.800 C 335.800 248.832,336.500 247.600,336.238 247.600 C 336.133 247.600,335.915 247.825,335.753 248.100 M91.000 254.000 C 92.750 255.760,94.271 257.200,94.381 257.200 C 94.491 257.200,93.150 255.760,91.400 254.000 C 89.650 252.240,88.129 250.800,88.019 250.800 C 87.909 250.800,89.250 252.240,91.000 254.000 M69.540 255.516 C 70.033 256.209,70.644 256.904,70.897 257.060 C 71.150 257.217,70.954 256.777,70.460 256.084 C 69.967 255.391,69.356 254.696,69.103 254.540 C 68.850 254.383,69.046 254.823,69.540 255.516 M331.144 255.100 C 329.875 256.632,329.419 257.342,329.881 257.065 C 330.393 256.758,332.169 254.400,331.889 254.400 C 331.798 254.400,331.463 254.715,331.144 255.100 M205.800 257.966 C 206.578 258.861,208.800 260.598,208.800 260.312 C 208.800 260.234,207.945 259.467,206.900 258.608 C 205.855 257.749,205.360 257.460,205.800 257.966 M97.869 260.109 C 99.987 261.813,100.605 262.121,99.000 260.673 C 98.120 259.880,97.251 259.223,97.069 259.215 C 96.887 259.207,97.247 259.609,97.869 260.109 M301.800 260.673 C 300.195 262.121,300.813 261.813,302.931 260.109 C 303.553 259.609,303.913 259.207,303.731 259.215 C 303.549 259.223,302.680 259.880,301.800 260.673 M100.800 262.146 C 100.800 262.256,101.340 262.730,102.000 263.200 C 102.660 263.670,103.200 263.964,103.200 263.854 C 103.200 263.744,102.660 263.270,102.000 262.800 C 101.340 262.330,100.800 262.036,100.800 262.146 M298.600 263.035 L 297.400 264.066 298.700 263.206 C 299.415 262.733,300.000 262.268,300.000 262.173 C 300.000 261.873,299.831 261.978,298.600 263.035 M75.600 262.642 C 75.600 262.849,77.175 264.544,79.100 266.409 L 82.600 269.800 79.200 266.212 C 77.330 264.239,75.755 262.544,75.700 262.445 C 75.645 262.347,75.600 262.436,75.600 262.642 M321.611 266.196 L 318.222 269.800 321.793 266.315 C 323.757 264.399,325.282 262.777,325.182 262.711 C 325.082 262.645,323.475 264.214,321.611 266.196 M295.300 265.026 C 294.365 265.587,293.600 266.140,293.600 266.255 C 293.600 266.471,296.299 264.938,296.980 264.336 C 297.667 263.728,297.027 263.991,295.300 265.026 M215.400 265.007 C 215.840 265.366,216.560 265.835,217.000 266.051 L 217.800 266.444 217.000 265.793 C 216.560 265.434,215.840 264.965,215.400 264.749 L 214.600 264.356 215.400 265.007 M218.000 266.579 C 218.000 266.689,218.540 267.059,219.200 267.400 C 219.860 267.741,220.400 267.931,220.400 267.821 C 220.400 267.711,219.860 267.341,219.200 267.000 C 218.540 266.659,218.000 266.469,218.000 266.579 M82.835 270.100 C 82.928 270.155,83.633 270.740,84.402 271.400 L 85.800 272.600 84.625 271.300 C 83.979 270.585,83.274 270.000,83.058 270.000 C 82.843 270.000,82.743 270.045,82.835 270.100 M316.175 271.300 L 315.000 272.600 316.398 271.400 C 317.167 270.740,317.872 270.155,317.965 270.100 C 318.057 270.045,317.957 270.000,317.742 270.000 C 317.526 270.000,316.821 270.585,316.175 271.300 M166.600 273.200 C 165.581 273.638,166.632 273.638,168.000 273.200 C 168.804 272.943,168.843 272.877,168.200 272.868 C 167.760 272.862,167.040 273.011,166.600 273.200 M170.400 273.200 C 171.768 273.638,172.819 273.638,171.800 273.200 C 171.360 273.011,170.640 272.862,170.200 272.868 C 169.557 272.877,169.596 272.943,170.400 273.200 M125.600 273.982 C 125.930 274.205,126.545 274.391,126.967 274.394 C 127.990 274.402,127.671 274.173,126.200 273.844 C 125.324 273.648,125.162 273.685,125.600 273.982 M163.600 274.000 C 162.776 274.264,162.741 274.326,163.400 274.354 C 163.840 274.373,164.470 274.213,164.800 274.000 C 165.501 273.547,165.014 273.547,163.600 274.000 M236.000 273.982 C 236.330 274.205,236.945 274.391,237.367 274.394 C 238.390 274.402,238.071 274.173,236.600 273.844 C 235.724 273.648,235.562 273.685,236.000 273.982 M274.000 274.000 C 273.176 274.264,273.141 274.326,273.800 274.354 C 274.240 274.373,274.870 274.213,275.200 274.000 C 275.901 273.547,275.414 273.547,274.000 274.000 M88.000 274.125 C 88.000 274.224,88.661 274.809,89.468 275.425 C 90.276 276.041,90.811 276.341,90.656 276.091 C 90.340 275.579,88.000 273.847,88.000 274.125 M311.185 275.229 L 309.800 276.458 311.300 275.381 C 312.626 274.430,313.057 274.000,312.685 274.000 C 312.622 274.000,311.947 274.553,311.185 275.229 M128.800 274.794 C 129.130 275.011,129.835 275.191,130.367 275.194 C 131.651 275.202,131.325 274.975,129.600 274.658 C 128.615 274.477,128.378 274.518,128.800 274.794 M239.200 274.805 C 239.530 275.016,240.325 275.191,240.967 275.194 C 242.514 275.202,242.177 274.971,240.200 274.668 C 239.110 274.501,238.791 274.545,239.200 274.805 M133.000 275.610 C 133.770 275.931,137.507 276.151,137.167 275.855 C 137.075 275.776,135.920 275.613,134.600 275.493 C 133.151 275.362,132.517 275.408,133.000 275.610 M153.900 275.882 C 154.395 275.978,155.205 275.978,155.700 275.882 C 156.195 275.787,155.790 275.709,154.800 275.709 C 153.810 275.709,153.405 275.787,153.900 275.882 M245.100 275.882 C 245.595 275.978,246.405 275.978,246.900 275.882 C 247.395 275.787,246.990 275.709,246.000 275.709 C 245.010 275.709,244.605 275.787,245.100 275.882 M264.300 275.882 C 264.795 275.978,265.605 275.978,266.100 275.882 C 266.595 275.787,266.190 275.709,265.200 275.709 C 264.210 275.709,263.805 275.787,264.300 275.882 M139.500 276.282 C 139.995 276.378,140.805 276.378,141.300 276.282 C 141.795 276.187,141.390 276.109,140.400 276.109 C 139.410 276.109,139.005 276.187,139.500 276.282 M149.100 276.282 C 149.595 276.378,150.405 276.378,150.900 276.282 C 151.395 276.187,150.990 276.109,150.000 276.109 C 149.010 276.109,148.605 276.187,149.100 276.282 M250.105 276.287 C 250.714 276.379,251.614 276.377,252.105 276.282 C 252.597 276.187,252.100 276.111,251.000 276.114 C 249.900 276.117,249.497 276.195,250.105 276.287 M259.305 276.287 C 259.914 276.379,260.814 276.377,261.305 276.282 C 261.797 276.187,261.300 276.111,260.200 276.114 C 259.100 276.117,258.697 276.195,259.305 276.287 M143.900 276.689 C 144.615 276.778,145.785 276.778,146.500 276.689 C 147.215 276.601,146.630 276.528,145.200 276.528 C 143.770 276.528,143.185 276.601,143.900 276.689 M254.300 276.689 C 255.015 276.778,256.185 276.778,256.900 276.689 C 257.615 276.601,257.030 276.528,255.600 276.528 C 254.170 276.528,253.585 276.601,254.300 276.689 M177.212 278.800 C 177.212 279.130,177.387 279.670,177.600 280.000 C 177.945 280.533,177.988 280.533,177.988 280.000 C 177.988 279.670,177.813 279.130,177.600 278.800 C 177.255 278.267,177.212 278.267,177.212 278.800 M96.800 280.367 C 97.763 281.152,98.400 281.408,98.400 281.010 C 98.400 280.906,97.815 280.535,97.100 280.186 L 95.800 279.552 96.800 280.367 M303.500 280.229 C 302.005 281.040,302.096 281.378,303.600 280.600 C 304.260 280.259,304.800 279.894,304.800 279.790 C 304.800 279.532,304.757 279.547,303.500 280.229 M209.200 281.379 C 209.200 281.489,209.740 281.859,210.400 282.200 C 211.060 282.541,211.600 282.731,211.600 282.621 C 211.600 282.511,211.060 282.141,210.400 281.800 C 209.740 281.459,209.200 281.269,209.200 281.379 M177.429 283.429 C 177.281 284.015,177.238 284.572,177.332 284.666 C 177.427 284.760,177.624 284.358,177.771 283.771 C 177.919 283.185,177.962 282.628,177.868 282.534 C 177.773 282.440,177.576 282.842,177.429 283.429 M215.200 284.589 C 215.200 284.906,218.100 286.033,218.328 285.805 C 218.441 285.692,218.435 285.600,218.316 285.600 C 218.196 285.600,217.446 285.328,216.649 284.995 C 215.852 284.662,215.200 284.479,215.200 284.589 M294.200 285.178 C 293.320 285.595,292.713 285.950,292.851 285.968 C 293.240 286.018,296.000 284.814,296.000 284.595 C 296.000 284.327,295.999 284.327,294.200 285.178 M174.062 288.408 C 173.546 288.838,172.403 289.384,171.522 289.621 C 170.640 289.858,169.993 290.126,170.082 290.215 C 170.449 290.583,173.274 289.496,174.299 288.594 C 175.609 287.441,175.410 287.285,174.062 288.408 M118.033 289.744 C 118.125 289.823,118.740 290.008,119.400 290.156 C 120.276 290.352,120.438 290.315,120.000 290.018 C 119.460 289.653,117.632 289.398,118.033 289.744 M228.433 289.744 C 228.525 289.823,229.140 290.008,229.800 290.156 C 230.676 290.352,230.838 290.315,230.400 290.018 C 229.860 289.653,228.032 289.398,228.433 289.744 M280.800 290.018 C 280.362 290.315,280.524 290.352,281.400 290.156 C 282.871 289.827,283.190 289.598,282.167 289.606 C 281.745 289.609,281.130 289.795,280.800 290.018 M120.833 290.544 C 120.925 290.623,121.540 290.808,122.200 290.956 C 123.076 291.152,123.238 291.115,122.800 290.818 C 122.260 290.453,120.432 290.198,120.833 290.544 M167.400 290.800 C 166.381 291.238,167.432 291.238,168.800 290.800 C 169.604 290.543,169.643 290.477,169.000 290.468 C 168.560 290.462,167.840 290.611,167.400 290.800 M231.233 290.544 C 231.325 290.623,231.940 290.808,232.600 290.956 C 233.476 291.152,233.638 291.115,233.200 290.818 C 232.660 290.453,230.832 290.198,231.233 290.544 M278.000 290.818 C 277.562 291.115,277.724 291.152,278.600 290.956 C 280.071 290.627,280.390 290.398,279.367 290.406 C 278.945 290.409,278.330 290.595,278.000 290.818 M124.033 291.343 C 124.125 291.421,124.830 291.601,125.600 291.742 C 126.585 291.923,126.822 291.882,126.400 291.606 C 125.858 291.250,123.637 291.003,124.033 291.343 M163.800 291.619 C 163.242 291.871,163.485 291.907,164.600 291.738 C 165.480 291.604,166.275 291.428,166.367 291.347 C 166.710 291.044,164.568 291.271,163.800 291.619 M234.433 291.343 C 234.525 291.421,235.230 291.601,236.000 291.742 C 236.985 291.923,237.222 291.882,236.800 291.606 C 236.258 291.250,234.037 291.003,234.433 291.343 M274.400 291.606 C 273.978 291.882,274.215 291.923,275.200 291.742 C 276.925 291.425,277.251 291.198,275.967 291.206 C 275.435 291.209,274.730 291.389,274.400 291.606 M128.033 292.144 C 128.125 292.224,129.010 292.396,130.000 292.527 C 131.202 292.686,131.534 292.647,131.000 292.410 C 130.236 292.072,127.686 291.843,128.033 292.144 M159.400 292.410 C 158.866 292.647,159.198 292.686,160.400 292.527 C 161.390 292.396,162.275 292.224,162.367 292.144 C 162.714 291.843,160.164 292.072,159.400 292.410 M238.433 292.144 C 238.525 292.224,239.410 292.396,240.400 292.527 C 241.602 292.686,241.934 292.647,241.400 292.410 C 240.636 292.072,238.086 291.843,238.433 292.144 M269.800 292.410 C 269.266 292.647,269.598 292.686,270.800 292.527 C 271.790 292.396,272.675 292.224,272.767 292.144 C 273.114 291.843,270.564 292.072,269.800 292.410 M135.400 293.218 C 138.147 293.646,140.431 293.612,138.000 293.180 C 137.010 293.003,135.570 292.870,134.800 292.883 C 133.655 292.903,133.765 292.964,135.400 293.218 M152.200 293.222 C 151.189 293.416,151.778 293.451,153.800 293.316 C 155.560 293.199,157.075 293.035,157.167 292.951 C 157.444 292.700,153.911 292.892,152.200 293.222 M245.800 293.218 C 248.547 293.646,250.831 293.612,248.400 293.180 C 247.410 293.003,245.970 292.870,245.200 292.883 C 244.055 292.903,244.165 292.964,245.800 293.218 M262.600 293.200 C 260.273 293.617,262.740 293.633,265.400 293.218 C 267.299 292.923,267.319 292.907,265.800 292.910 C 264.920 292.912,263.480 293.042,262.600 293.200 " stroke="none" fill="#96bcdc" fill-rule="evenodd"></path></g></svg>